<?xml version="1.0" encoding="utf-8"?>
<!-- Generator: Adobe Illustrator 27.5.0, SVG Export Plug-In . SVG Version: 6.00 Build 0)  -->
<svg version="1.1" xmlns="http://www.w3.org/2000/svg" xmlns:xlink="http://www.w3.org/1999/xlink" x="0px" y="0px"
	 viewBox="0 0 500 500" style="enable-background:new 0 0 500 500;" xml:space="preserve">
<g id="BACKGROUND">
	<rect style="fill:#5F3B72;" width="500" height="500"/>
</g>
<g id="OBJECTS">
	<g>
		<path style="fill:#973F9E;" d="M306.898,96.507c-1.51-0.547-3.033-1.066-4.564-1.567L102.734,277.333
			c0.36,1.57,0.749,3.129,1.156,4.681L306.898,96.507z"/>
		<path style="fill:#973F9E;" d="M318.035,101.036c-1.407-0.638-2.828-1.25-4.258-1.847L105.935,289.114
			c0.465,1.477,0.956,2.943,1.463,4.401L318.035,101.036z"/>
		<path style="fill:#973F9E;" d="M363.801,132.741c-1-1-2.017-1.983-3.044-2.956L132.182,338.656c0.877,1.11,1.772,2.205,2.679,3.29
			L363.801,132.741z"/>
		<path style="fill:#973F9E;" d="M355.835,125.315c-1.074-0.934-2.161-1.854-3.26-2.758l-226.856,207.3
			c0.803,1.177,1.623,2.339,2.457,3.492L355.835,125.315z"/>
		<path style="fill:#973F9E;" d="M347.301,118.408c-1.15-0.866-2.31-1.719-3.484-2.554L119.831,320.531
			c0.726,1.245,1.47,2.478,2.229,3.701L347.301,118.408z"/>
		<path style="fill:#973F9E;" d="M338.179,112.039c-1.229-0.795-2.468-1.577-3.721-2.337L114.545,310.656
			c0.645,1.317,1.31,2.622,1.991,3.918L338.179,112.039z"/>
		<path style="fill:#973F9E;" d="M328.438,106.235c-1.314-0.719-2.639-1.422-3.976-2.104L109.897,300.199
			c0.559,1.394,1.14,2.776,1.737,4.15L328.438,106.235z"/>
		<path style="fill:#973F9E;" d="M188.534,101.731c-5.209,2.428-10.265,5.128-15.14,8.098l-44.171,40.364
			c-3.415,4.61-6.579,9.415-9.475,14.396L188.534,101.731z"/>
		<path style="fill:#973F9E;" d="M262.22,87.48L98.924,236.7c-0.07,1.922-0.118,3.85-0.118,5.789c0,0.019,0.001,0.038,0.001,0.057
			L268.038,87.901C266.108,87.728,264.171,87.581,262.22,87.48z"/>
		<path style="fill:#973F9E;" d="M215.056,92.201c-3.123,0.808-6.204,1.718-9.247,2.712l-94.425,86.285
			c-1.265,2.941-2.441,5.929-3.527,8.96L215.056,92.201z"/>
		<path style="fill:#973F9E;" d="M252.623,87.283c-2.169,0.019-4.329,0.073-6.476,0.18L100.334,220.706
			c-0.3,2.136-0.563,4.283-0.775,6.446L252.623,87.283z"/>
		<path style="fill:#973F9E;" d="M282.058,89.795c-1.764-0.322-3.54-0.611-5.324-0.872L99.058,251.282
			c0.1,1.8,0.236,3.591,0.397,5.375L282.058,89.795z"/>
		<path style="fill:#973F9E;" d="M294.943,92.726c-1.626-0.443-3.261-0.863-4.907-1.254L100.402,264.759
			c0.241,1.678,0.501,3.351,0.795,5.011L294.943,92.726z"/>
		<path style="fill:#973F9E;" d="M235.317,88.391c-2.507,0.301-4.995,0.663-7.464,1.083L103.967,202.681
			c-0.641,2.423-1.224,4.868-1.749,7.336L235.317,88.391z"/>
		<path style="fill:#973F9E;" d="M403.254,199.626c-0.432-1.506-0.892-3.001-1.368-4.488L193.57,385.497
			c1.44,0.609,2.894,1.191,4.356,1.758L403.254,199.626z"/>
		<path style="fill:#973F9E;" d="M408.871,253.314c0.137-1.994,0.239-3.998,0.3-6.012L244.874,397.436
			c1.997,0.116,4.004,0.196,6.02,0.236L408.871,253.314z"/>
		<path style="fill:#973F9E;" d="M406.843,269.872c0.393-2.21,0.732-4.439,1.031-6.68L260.836,397.555
			c2.267-0.098,4.52-0.246,6.76-0.44L406.843,269.872z"/>
		<path style="fill:#973F9E;" d="M371.202,140.683c-0.927-1.066-1.871-2.116-2.826-3.156L139.208,346.941
			c0.951,1.044,1.919,2.072,2.897,3.09L371.202,140.683z"/>
		<path style="fill:#973F9E;" d="M402.225,288.797c0.797-2.554,1.529-5.136,2.196-7.745L278.946,395.712
			c2.66-0.429,5.296-0.927,7.909-1.489L402.225,288.797z"/>
		<path style="fill:#973F9E;" d="M380.855,331.998l-49.124,44.89C351.168,365.625,367.936,350.27,380.855,331.998z"/>
		<path style="fill:#973F9E;" d="M392.777,312.137c1.628-3.236,3.147-6.535,4.55-9.896l-96.676,88.342
			c3.465-1.09,6.88-2.294,10.236-3.615L392.777,312.137z"/>
		<path style="fill:#973F9E;" d="M408.21,224.508c-0.198-1.716-0.418-3.426-0.671-5.124l-190.33,173.923
			c1.667,0.406,3.342,0.79,5.03,1.142L408.21,224.508z"/>
		<path style="fill:#973F9E;" d="M409.195,238.312c-0.049-1.845-0.14-3.679-0.252-5.507L230.43,395.929
			c1.817,0.277,3.648,0.512,5.485,0.725L409.195,238.312z"/>
		<path style="fill:#973F9E;" d="M390.018,167.605c-0.7-1.268-1.419-2.524-2.153-3.771L163.667,368.706
			c1.175,0.843,2.359,1.675,3.559,2.485L390.018,167.605z"/>
		<path style="fill:#973F9E;" d="M384.323,158.103c-0.778-1.199-1.574-2.384-2.384-3.56L154.944,361.972
			c1.098,0.912,2.207,1.812,3.331,2.694L384.323,158.103z"/>
		<path style="fill:#973F9E;" d="M378.046,149.135c-0.853-1.131-1.724-2.249-2.607-3.356L146.794,354.714
			c1.024,0.979,2.062,1.942,3.113,2.893L378.046,149.135z"/>
		<path style="fill:#973F9E;" d="M399.531,188.322c-0.529-1.42-1.081-2.829-1.65-4.23L182.938,380.506
			c1.343,0.693,2.698,1.369,4.064,2.024L399.531,188.322z"/>
		<path style="fill:#973F9E;" d="M395.1,177.666c-0.618-1.342-1.255-2.672-1.91-3.992L172.987,374.895
			c1.256,0.771,2.521,1.529,3.801,2.265L395.1,177.666z"/>
		<path style="fill:#973F9E;" d="M406.185,211.653c-0.323-1.604-0.672-3.198-1.044-4.783L204.964,389.79
			c1.546,0.515,3.105,1.002,4.672,1.469L406.185,211.653z"/>
	</g>
	<g>
		<path style="fill:#C16F25;" d="M179.559,288.35c0,0-10.005,1.949-11.532,2.153c-1.527,0.204-12.524,1.324-16.189-9.978
			c-3.666-11.302-26.824-93.138-28.176-98.773c-1.353-5.635-3.063-16.096,11.364-18.93S179.559,288.35,179.559,288.35z"/>
		<path style="fill:#D38D42;" d="M160.97,282.005l-1.116-3.938l-30.962-109.253c0,0-3.666-4.583,11.915-7.332
			c15.581-2.75,151.226-25.663,151.226-25.663s8.249-1.833,10.998,7.79c2.75,9.624,27.954,103.109,27.954,103.109
			s4.124,10.082-5.957,13.748c-10.082,3.666-153.518,29.329-153.518,29.329S163.03,289.273,160.97,282.005z"/>
		<path style="fill:#E0AC51;" d="M235.447,210.065c-0.051,0.037-0.096,0.077-0.147,0.113c0.259,0.002,0.509-0.017,0.765-0.021
			C235.856,210.12,235.653,210.097,235.447,210.065z"/>
		<path style="fill:#F9BF64;" d="M294.348,149.172c-2.686-8.31-10.081-6.531-10.081-6.531s-11.672,2.201-28.197,5.321
			c-6.355,20.692-0.543,47.483-20.623,62.103c0.207,0.033,0.409,0.055,0.618,0.092c12-0.199,21.203-6.902,27.575-16.459
			c9.133-13.048,18.27-32.694,32.185-39.833C295.135,151.652,294.624,150.025,294.348,149.172z"/>
		<path style="fill:#E0AC51;" d="M235.134,210.289c-0.146-0.038-0.293-0.082-0.439-0.118c0.115,0.06,0.229,0.126,0.344,0.183
			C235.069,210.331,235.102,210.31,235.134,210.289z"/>
		<path style="fill:#E0AC51;" d="M235.299,210.178c-0.207-0.001-0.419-0.015-0.627-0.019c0.008,0.004,0.015,0.008,0.023,0.012
			c0.146,0.036,0.293,0.08,0.439,0.118C235.19,210.252,235.247,210.216,235.299,210.178z"/>
		<path style="fill:#E0AC51;" d="M235.038,210.353c2.477,1.227,4.952,2.054,7.423,2.557c-2.443-1.124-4.886-1.988-7.327-2.621
			C235.102,210.31,235.069,210.331,235.038,210.353z"/>
		<path style="fill:#E0AC51;" d="M295.824,153.865c-13.915,7.138-23.052,26.785-32.185,39.833
			c-6.371,9.557-15.575,16.259-27.575,16.459c1.903,0.339,3.876,0.847,5.936,1.574c-2.06-0.727-4.032-1.235-5.936-1.574
			c-0.256,0.004-0.506,0.023-0.765,0.021c-0.053,0.038-0.109,0.074-0.165,0.111c2.441,0.632,4.884,1.497,7.327,2.621
			c17.831,3.628,35.447-9.961,51.833-17.409c4.338-1.735,9.091-2.622,13.661-2.286C303.13,177.507,298.303,161.825,295.824,153.865z
			"/>
		<path style="fill:#E0AC51;" d="M233.049,209.263c-0.105-0.061-0.21-0.112-0.314-0.173c0.056,0.141,0.112,0.283,0.166,0.427
			C232.95,209.433,233,209.349,233.049,209.263z"/>
		<path style="fill:#E0AC51;" d="M234.154,209.873c-0.368-0.2-0.737-0.397-1.105-0.609c-0.048,0.086-0.099,0.169-0.148,0.254
			c0.033,0.086,0.067,0.17,0.1,0.256C233.383,209.803,233.764,209.827,234.154,209.873z"/>
		<path style="fill:#E0AC51;" d="M234.154,209.873c-0.39-0.045-0.771-0.07-1.154-0.1c0.003,0.008,0.006,0.015,0.009,0.022
			c0.546,0.113,1.092,0.228,1.638,0.362c0.008,0,0.017,0.001,0.026,0.001C234.499,210.07,234.327,209.967,234.154,209.873z"/>
		<path style="fill:#E0AC51;" d="M234.647,210.158c-0.546-0.135-1.092-0.25-1.638-0.362c0.038,0.102,0.076,0.205,0.117,0.302
			C233.636,210.126,234.143,210.147,234.647,210.158z"/>
		<path style="fill:#E0AC51;" d="M234.672,210.159c-0.008,0-0.017-0.001-0.026-0.001c0.016,0.004,0.032,0.009,0.048,0.013
			C234.687,210.167,234.68,210.163,234.672,210.159z"/>
		<path style="fill:#E0AC51;" d="M234.695,210.171c-0.016-0.004-0.032-0.009-0.048-0.013c-0.503-0.011-1.01-0.031-1.521-0.061
			c0.174,0.406,0.368,0.778,0.552,1.168c0.458-0.302,0.923-0.601,1.361-0.912C234.924,210.296,234.809,210.23,234.695,210.171z"/>
		<path style="fill:#F9BF64;" d="M321.765,238.243c0,0-6.902-22.54-13.81-45.028c-4.57-0.336-9.323,0.551-13.661,2.286
			c-16.386,7.448-34.003,21.037-51.833,17.409c0.447,0.206,0.895,0.4,1.342,0.624c-0.447-0.224-0.895-0.418-1.342-0.624
			c-2.471-0.503-4.946-1.33-7.423-2.557c-0.438,0.311-0.902,0.61-1.361,0.912c11.493,24.372,41.057,16.972,66.027,20.301
			c9.267,2.059,14.994,9.416,17.877,18.366C325.385,246.292,321.765,238.243,321.765,238.243z"/>
		<path style="fill:#F9BF64;" d="M229.377,224.353c-1.075-3.225-0.845-7.088,0.261-10.83c-2.607,2.474-5.551,4.339-7.474,7.224
			c-8.851,15.173-3.535,38.313-10.747,52.038c10.978-2.21,23.688-4.783,36.414-7.39
			C249.165,252.381,235.717,237.032,229.377,224.353z"/>
		<path style="fill:#E0AC51;" d="M235.299,210.178c0.051-0.037,0.096-0.076,0.147-0.113c-0.433-0.068-0.868-0.143-1.293-0.192
			c0.173,0.094,0.346,0.198,0.518,0.286C234.88,210.163,235.093,210.177,235.299,210.178z"/>
		<path style="fill:#E0AC51;" d="M182.492,253.205c-2.701,5.402-9.448,8.781-16.454,9.379l2.165,6.75l1.091,3.401
			c2.013,6.276,9.667,6.542,9.667,6.542s13.694-2.716,32.455-6.493c7.212-13.725,1.896-36.864,10.747-52.038
			c1.923-2.884,4.868-4.75,7.474-7.224c0.338-1.143,0.787-2.259,1.282-3.355c-0.025-0.165-0.06-0.326-0.087-0.49
			C207.98,209.63,196.594,237.536,182.492,253.205z"/>
		<path style="fill:#E0AC51;" d="M230.833,209.678c0.027,0.164,0.062,0.324,0.087,0.49c0.074-0.165,0.138-0.333,0.215-0.497
			C231.033,209.669,230.935,209.678,230.833,209.678z"/>
		<path style="fill:#F9BF64;" d="M169.87,222.55c-5.349,1.337-11.686,1.677-16.813-0.44l12.982,40.474
			c7.005-0.599,13.753-3.977,16.454-9.379c14.102-15.669,25.488-43.575,48.341-43.527c-0.015-0.089-0.032-0.178-0.048-0.267
			C209.927,206.206,189.28,218.071,169.87,222.55z"/>
		<path style="fill:#E0AC51;" d="M231.193,209.548c-0.032-0.035-0.067-0.066-0.1-0.1c-0.103-0.017-0.205-0.02-0.308-0.036
			c0.016,0.089,0.033,0.177,0.048,0.267c0.102,0,0.2-0.009,0.302-0.008C231.155,209.63,231.174,209.589,231.193,209.548z"/>
		<path style="fill:#E0AC51;" d="M231.233,209.464c-0.046-0.008-0.092-0.009-0.139-0.017c0.032,0.035,0.068,0.065,0.1,0.1
			C231.206,209.52,231.22,209.492,231.233,209.464z"/>
		<path style="fill:#F9BF64;" d="M193.312,163.042c-0.464-0.928-0.683-1.977-0.73-3.083c-21.285,4.029-39.194,7.43-44.058,8.383
			c-0.242,0.047-0.464,0.102-0.695,0.154c18.274,23.215,49.728,20.202,74.335,36.021c2.099,1.049,6.005,2.124,8.568,4.595
			C227.039,189.366,204.509,179.038,193.312,163.042z"/>
		<path style="fill:#E0AC51;" d="M192.581,159.96c0.048,1.105,0.266,2.155,0.73,3.083c11.197,15.995,33.727,26.324,37.42,46.07
			c0.118,0.114,0.249,0.215,0.361,0.335c0.046,0.007,0.092,0.009,0.139,0.017c0.154-0.34,0.298-0.684,0.475-1.012
			c-0.176-0.111-0.351-0.211-0.527-0.328c0.176,0.117,0.351,0.217,0.527,0.328c0.151-0.281,0.327-0.542,0.487-0.816
			c-0.362-0.997-0.709-2.02-1.014-3.118c0.305,1.098,0.652,2.121,1.014,3.118c0.259-0.442,0.508-0.893,0.789-1.315
			c-0.282,0.422-0.531,0.872-0.789,1.315c0.178,0.489,0.352,0.983,0.54,1.454c0.105,0.062,0.21,0.113,0.314,0.173
			c0.754-1.342,1.366-2.884,1.738-4.746c-0.372,1.862-0.984,3.404-1.738,4.746c0.368,0.213,0.737,0.41,1.105,0.609
			c0.425,0.049,0.86,0.124,1.293,0.192c20.08-14.62,14.268-41.411,20.623-62.103C237.78,151.414,213.544,155.992,192.581,159.96z"/>
		<path style="fill:#E0AC51;" d="M222.164,204.517c-24.607-15.819-56.061-12.805-74.335-36.021
			c-13.089,2.943-7.848,12.845-7.848,12.845l13.076,40.769c5.126,2.117,11.464,1.777,16.813,0.44
			c19.41-4.479,40.057-16.344,60.916-13.139c-0.018-0.1-0.035-0.2-0.053-0.299C228.169,206.641,224.263,205.567,222.164,204.517z"/>
		<path style="fill:#E0AC51;" d="M230.732,209.112c0.019,0.099,0.036,0.199,0.053,0.299c0.103,0.016,0.205,0.019,0.308,0.036
			C230.982,209.327,230.851,209.226,230.732,209.112z"/>
		<path style="fill:#E0AC51;" d="M232.194,207.635c-0.16,0.274-0.336,0.535-0.487,0.816c0.342,0.217,0.685,0.437,1.027,0.638
			C232.547,208.618,232.372,208.124,232.194,207.635z"/>
		<path style="fill:#E0AC51;" d="M299.704,231.566c-24.97-3.329-54.534,4.071-66.027-20.301c-0.234,0.154-0.451,0.316-0.694,0.465
			c0.243-0.149,0.46-0.311,0.694-0.465c-0.184-0.39-0.378-0.762-0.552-1.168c-0.177-0.01-0.36-0.034-0.538-0.047
			c-0.157,0.244-0.342,0.447-0.509,0.677c0.993,1.61,1.452,3.675,0.905,6.413c0.548-2.738,0.089-4.803-0.905-6.413
			c-0.305,0.421-0.629,0.814-0.956,1.201c0.152,1.671,0.186,3.4,0.057,5.212c0.129-1.811,0.094-3.541-0.057-5.212
			c-0.475,0.563-0.966,1.102-1.485,1.595c-1.107,3.742-1.336,7.605-0.261,10.83c6.339,12.679,19.788,28.028,18.454,41.041
			c32.22-6.6,64.51-13.41,68.861-15.059c0.325-0.123,0.598-0.267,0.889-0.403C314.699,240.983,308.971,233.626,299.704,231.566z"/>
		<path style="fill:#E0AC51;" d="M233,209.773c-0.047-0.004-0.093-0.006-0.14-0.009c0.05,0.01,0.099,0.021,0.149,0.031
			C233.005,209.788,233.003,209.781,233,209.773z"/>
		<path style="fill:#E0AC51;" d="M233.008,209.795c-0.049-0.01-0.099-0.021-0.149-0.031c-0.033-0.002-0.067-0.004-0.101-0.006
			c-0.056,0.099-0.111,0.199-0.171,0.292c0.178,0.013,0.361,0.037,0.538,0.047C233.084,210.001,233.047,209.897,233.008,209.795z"/>
		<path style="fill:#E0AC51;" d="M233,209.773c-0.033-0.086-0.067-0.17-0.1-0.256c-0.044,0.076-0.089,0.151-0.133,0.228
			c0.031,0.006,0.062,0.013,0.093,0.02C232.906,209.767,232.953,209.769,233,209.773z"/>
		<path style="fill:#E0AC51;" d="M232.767,209.745c-0.003,0.004-0.005,0.009-0.008,0.013c0.034,0.002,0.067,0.004,0.101,0.006
			C232.829,209.758,232.798,209.751,232.767,209.745z"/>
		<path style="fill:#E0AC51;" d="M232.734,209.09c-0.342-0.201-0.685-0.422-1.027-0.638c-0.176,0.328-0.321,0.673-0.475,1.012
			c0.511,0.084,1.023,0.178,1.534,0.281c0.044-0.077,0.089-0.152,0.133-0.228C232.846,209.373,232.79,209.231,232.734,209.09z"/>
		<path style="fill:#E0AC51;" d="M231.193,209.548c-0.019,0.041-0.038,0.082-0.058,0.123c0.06,0.001,0.123,0.008,0.184,0.01
			C231.28,209.634,231.234,209.593,231.193,209.548z"/>
		<path style="fill:#E0AC51;" d="M231.233,209.464c-0.013,0.028-0.026,0.056-0.039,0.084c0.041,0.045,0.086,0.087,0.126,0.133
			c0.475,0.013,0.957,0.044,1.439,0.077c0.003-0.005,0.005-0.009,0.008-0.013C232.255,209.642,231.744,209.548,231.233,209.464z"/>
		<path style="fill:#E0AC51;" d="M232.588,210.05c0.06-0.093,0.115-0.194,0.171-0.292c-0.483-0.033-0.965-0.064-1.439-0.077
			c0.076,0.087,0.137,0.187,0.209,0.277C231.884,209.993,232.237,210.025,232.588,210.05z"/>
		<path style="fill:#E0AC51;" d="M229.639,213.523c0.519-0.493,1.01-1.032,1.485-1.595c-0.054-0.594-0.116-1.183-0.203-1.761
			C230.426,211.264,229.977,212.38,229.639,213.523z"/>
		<path style="fill:#E0AC51;" d="M231.529,209.958c-0.117-0.012-0.231-0.016-0.349-0.031
			C231.298,209.942,231.412,209.946,231.529,209.958c-0.072-0.09-0.134-0.19-0.209-0.277c-0.061-0.002-0.124-0.009-0.184-0.01
			c-0.077,0.164-0.141,0.332-0.215,0.497c0.087,0.577,0.149,1.167,0.203,1.761c0.327-0.387,0.651-0.78,0.956-1.201
			C231.912,210.456,231.725,210.203,231.529,209.958z"/>
		<path style="fill:#E0AC51;" d="M231.529,209.958c0.196,0.246,0.383,0.499,0.55,0.77c0.167-0.23,0.352-0.433,0.509-0.677
			C232.237,210.025,231.884,209.993,231.529,209.958z"/>
		<path style="fill:#C16F25;" d="M282.313,271.104l-58.617,12.957c-2.406,0.532-4.809-1.002-5.341-3.408l0,0
			c-0.532-2.406,1.002-4.81,3.408-5.341l58.617-12.957c2.406-0.532,4.81,1.002,5.341,3.408l0,0
			C286.252,268.168,284.719,270.572,282.313,271.104z"/>
		<g>
			<path style="fill:#C16F25;" d="M177.755,303.096l145.992-30.054c0,0,4.508-1.202,13.825,1.503
				c9.317,2.705,68.223,18.033,68.223,18.033s4.809,4.055-3.306,6.235c-8.115,2.18-127.13,28.027-132.539,29.53
				c-5.41,1.503-12.685,1.803-19.716,0c-7.032-1.803-60.829-18.033-65.337-19.535C180.389,307.304,175.122,306.703,177.755,303.096z
				"/>
			<path style="fill:#C16F25;" d="M177.096,304.501V293.67c0,0,15.035,3.826,15.387,3.943c0.351,0.117,1.991,5.974,1.991,5.974
				L177.096,304.501z"/>
			<polygon style="fill:#C16F25;" points="407.195,295.078 407.195,284.633 384.17,286.332 386.169,293.019 			"/>
			<path style="fill:#E0AC51;" d="M177.755,292.276l145.992-30.054c0,0,4.508-1.202,13.825,1.503
				c9.317,2.705,68.223,18.033,68.223,18.033s4.809,4.055-3.306,6.235c-8.115,2.18-127.13,28.027-132.539,29.53
				c-5.41,1.503-12.685,1.803-19.716,0c-7.032-1.803-60.829-18.033-65.337-19.535C180.389,296.483,175.122,295.882,177.755,292.276z
				"/>
		</g>
		<polygon style="fill:#EFC95E;" points="190.078,293.67 204.914,297.539 318.964,273.895 306.214,270.418 		"/>
		<path style="fill:#EFC95E;" d="M212.547,301.18l43.879,12.435c0,0,93.77-18.44,92.868-18.537
			c-0.902-0.097-44.074-14.241-44.074-14.241L212.547,301.18z"/>
		<polygon style="fill:#EFC95E;" points="314.431,279.277 349.3,272.776 395.682,285.483 355.057,293.312 		"/>
		<polygon style="fill:#ED7D5F;" points="315.579,267.697 325.604,271.588 338.996,269.343 326.802,265.453 		"/>
	</g>
	<g>
		<path style="fill:#FFFFFF;" d="M179.518,44.966l3.068,3.091c0.667,0.672,1.692,0.839,2.538,0.412l3.887-1.962
			c1.891-0.955,3.9,1.069,2.931,2.953l-1.992,3.873c-0.433,0.843-0.275,1.869,0.393,2.541l3.068,3.091
			c1.493,1.504,0.189,4.039-1.903,3.7l-4.298-0.697c-0.935-0.152-1.862,0.316-2.295,1.159l-1.992,3.872
			c-0.969,1.884-3.783,1.428-4.107-0.666l-0.665-4.304c-0.145-0.936-0.876-1.673-1.811-1.825l-4.298-0.697
			c-2.091-0.339-2.527-3.157-0.635-4.111l3.887-1.962c0.846-0.427,1.321-1.35,1.176-2.287l-0.665-4.303
			C175.48,44.747,178.025,43.463,179.518,44.966z"/>
		<path style="fill:#FFFFFF;" d="M185.24,404.44l3.142,3.015c0.684,0.656,1.712,0.798,2.547,0.35l3.839-2.056
			c1.868-1,3.924,0.974,3.001,2.881l-1.897,3.92c-0.413,0.853-0.229,1.875,0.454,2.531l3.141,3.016
			c1.529,1.467,0.286,4.033-1.813,3.745l-4.314-0.593c-0.939-0.129-1.854,0.361-2.267,1.214l-1.897,3.92
			c-0.923,1.907-3.748,1.519-4.122-0.567l-0.769-4.286c-0.167-0.933-0.916-1.652-1.855-1.781l-4.314-0.593
			c-2.099-0.289-2.602-3.095-0.735-4.095l3.839-2.056c0.835-0.447,1.288-1.382,1.12-2.314l-0.769-4.286
			C181.198,404.318,183.711,402.972,185.24,404.44z"/>
		<path style="fill:#FFFFFF;" d="M81.895,192.957l3.068,3.091c0.668,0.673,1.692,0.839,2.538,0.412l3.887-1.962
			c1.891-0.955,3.9,1.069,2.931,2.953l-1.992,3.873c-0.433,0.843-0.275,1.868,0.393,2.541l3.068,3.091
			c1.493,1.504,0.189,4.039-1.903,3.7l-4.298-0.697c-0.935-0.152-1.862,0.316-2.295,1.159l-1.992,3.872
			c-0.969,1.884-3.783,1.428-4.107-0.666l-0.665-4.303c-0.145-0.936-0.876-1.673-1.811-1.825l-4.298-0.697
			c-2.091-0.339-2.527-3.157-0.635-4.111l3.887-1.962c0.846-0.427,1.321-1.35,1.176-2.287l-0.665-4.303
			C77.857,192.738,80.402,191.454,81.895,192.957z"/>
		<path style="fill:#FFFFFF;" d="M171.307,100.995l0.281,2.379c0.061,0.518,0.449,0.937,0.96,1.039l2.349,0.467
			c1.143,0.228,1.327,1.785,0.269,2.273l-2.176,1.003c-0.473,0.218-0.752,0.716-0.691,1.234l0.281,2.379
			c0.137,1.158-1.287,1.814-2.079,0.958l-1.626-1.759c-0.354-0.383-0.914-0.494-1.387-0.276l-2.176,1.003
			c-1.059,0.488-2.123-0.664-1.553-1.681l1.171-2.09c0.255-0.455,0.188-1.022-0.166-1.405l-1.626-1.759
			c-0.791-0.856-0.025-2.224,1.118-1.997l2.349,0.467c0.511,0.102,1.03-0.137,1.285-0.592l1.171-2.09
			C169.632,99.532,171.17,99.838,171.307,100.995z"/>
		<path style="fill:#FFFFFF;" d="M325.417,104.869l0.281,2.379c0.061,0.518,0.449,0.937,0.96,1.039l2.349,0.467
			c1.143,0.227,1.327,1.785,0.269,2.273l-2.176,1.003c-0.473,0.218-0.753,0.716-0.691,1.234l0.281,2.379
			c0.137,1.157-1.287,1.814-2.078,0.958l-1.626-1.759c-0.354-0.383-0.914-0.494-1.387-0.276l-2.175,1.003
			c-1.059,0.488-2.123-0.664-1.553-1.681l1.171-2.09c0.255-0.455,0.188-1.022-0.166-1.405l-1.626-1.759
			c-0.791-0.856-0.025-2.224,1.118-1.997l2.349,0.467c0.511,0.102,1.03-0.137,1.285-0.592l1.171-2.09
			C323.742,103.405,325.28,103.711,325.417,104.869z"/>
		<path style="fill:#FFFFFF;" d="M79.945,149.014l0.281,2.379c0.061,0.518,0.449,0.937,0.96,1.039l2.349,0.467
			c1.143,0.227,1.327,1.785,0.269,2.273l-2.175,1.003c-0.473,0.218-0.753,0.716-0.691,1.234l0.281,2.379
			c0.137,1.158-1.287,1.814-2.078,0.958l-1.626-1.759c-0.354-0.383-0.914-0.494-1.387-0.276l-2.175,1.003
			c-1.059,0.488-2.123-0.664-1.553-1.681l1.171-2.09c0.255-0.455,0.188-1.022-0.166-1.405l-1.626-1.759
			c-0.791-0.856-0.025-2.224,1.118-1.997l2.349,0.467c0.511,0.102,1.03-0.137,1.285-0.592l1.171-2.09
			C78.27,147.551,79.808,147.857,79.945,149.014z"/>
		<path style="fill:#FFFFFF;" d="M358.259,355.403l0.281,2.379c0.061,0.518,0.449,0.937,0.96,1.039l2.349,0.467
			c1.143,0.227,1.327,1.785,0.269,2.273l-2.176,1.003c-0.473,0.218-0.753,0.716-0.691,1.234l0.281,2.379
			c0.137,1.158-1.287,1.814-2.078,0.958l-1.626-1.759c-0.354-0.383-0.914-0.494-1.387-0.276l-2.175,1.003
			c-1.059,0.488-2.123-0.664-1.553-1.681l1.171-2.09c0.255-0.455,0.188-1.022-0.166-1.405l-1.626-1.759
			c-0.791-0.856-0.025-2.224,1.118-1.997l2.349,0.467c0.511,0.102,1.03-0.137,1.285-0.592l1.171-2.09
			C356.584,353.94,358.122,354.246,358.259,355.403z"/>
		<path style="fill:#FFFFFF;" d="M411.137,154.43l0.281,2.379c0.061,0.518,0.449,0.937,0.96,1.039l2.349,0.467
			c1.143,0.227,1.327,1.785,0.269,2.273l-2.176,1.003c-0.473,0.218-0.752,0.716-0.691,1.234l0.281,2.379
			c0.137,1.157-1.287,1.814-2.078,0.958l-1.626-1.759c-0.354-0.383-0.914-0.494-1.387-0.276l-2.175,1.003
			c-1.059,0.488-2.123-0.664-1.553-1.681l1.171-2.09c0.255-0.455,0.188-1.022-0.166-1.405l-1.626-1.759
			c-0.791-0.856-0.025-2.224,1.118-1.997l2.349,0.467c0.511,0.102,1.03-0.137,1.284-0.592l1.171-2.09
			C409.462,152.967,411,153.273,411.137,154.43z"/>
		<path style="fill:#FFFFFF;" d="M209.485,365.662l0.281,2.379c0.061,0.518,0.449,0.937,0.96,1.039l2.349,0.467
			c1.143,0.228,1.327,1.785,0.269,2.273l-2.175,1.003c-0.473,0.218-0.753,0.716-0.691,1.234l0.281,2.379
			c0.137,1.157-1.287,1.814-2.079,0.958l-1.626-1.759c-0.354-0.383-0.914-0.494-1.387-0.276l-2.176,1.003
			c-1.059,0.488-2.123-0.664-1.553-1.681l1.171-2.09c0.255-0.455,0.188-1.022-0.166-1.405l-1.626-1.759
			c-0.791-0.856-0.025-2.224,1.118-1.997l2.349,0.467c0.511,0.102,1.03-0.137,1.285-0.592l1.171-2.09
			C207.81,364.198,209.348,364.504,209.485,365.662z"/>
		<path style="fill:#FFFFFF;" d="M344.691,390.903l3.068,3.091c0.667,0.672,1.692,0.839,2.538,0.412l3.887-1.962
			c1.892-0.955,3.9,1.069,2.931,2.953l-1.992,3.872c-0.433,0.843-0.275,1.869,0.393,2.541l3.068,3.091
			c1.493,1.504,0.189,4.039-1.903,3.7l-4.298-0.697c-0.935-0.152-1.862,0.316-2.295,1.159l-1.991,3.872
			c-0.969,1.884-3.783,1.428-4.107-0.666l-0.665-4.303c-0.145-0.936-0.876-1.673-1.811-1.825l-4.298-0.697
			c-2.092-0.339-2.527-3.157-0.635-4.112l3.887-1.962c0.846-0.427,1.321-1.35,1.176-2.287l-0.665-4.303
			C340.653,390.684,343.198,389.399,344.691,390.903z"/>
		<path style="fill:#FFFFFF;" d="M435.301,295.633l3.068,3.091c0.668,0.673,1.692,0.839,2.538,0.412l3.887-1.962
			c1.892-0.955,3.9,1.069,2.931,2.953l-1.991,3.872c-0.433,0.843-0.275,1.868,0.393,2.541l3.068,3.091
			c1.493,1.504,0.189,4.039-1.903,3.7l-4.298-0.697c-0.935-0.152-1.862,0.316-2.295,1.159l-1.992,3.873
			c-0.969,1.884-3.783,1.428-4.107-0.666l-0.665-4.303c-0.145-0.936-0.876-1.673-1.811-1.825l-4.298-0.697
			c-2.091-0.339-2.527-3.157-0.635-4.112l3.887-1.962c0.846-0.427,1.321-1.35,1.176-2.287l-0.665-4.303
			C431.264,295.414,433.809,294.129,435.301,295.633z"/>
		<path style="fill:#FFFFFF;" d="M332.766,56.903l3.068,3.091c0.668,0.673,1.692,0.839,2.538,0.412l3.887-1.962
			c1.891-0.955,3.9,1.069,2.931,2.953l-1.991,3.873c-0.433,0.843-0.275,1.869,0.393,2.541l3.068,3.091
			c1.493,1.504,0.189,4.039-1.903,3.7l-4.298-0.697c-0.935-0.152-1.862,0.316-2.295,1.159l-1.991,3.872
			c-0.969,1.884-3.783,1.428-4.107-0.666l-0.665-4.303c-0.145-0.936-0.876-1.673-1.811-1.825l-4.298-0.697
			c-2.091-0.339-2.527-3.157-0.635-4.112l3.887-1.962c0.846-0.427,1.321-1.35,1.176-2.287l-0.665-4.304
			C328.728,56.684,331.273,55.399,332.766,56.903z"/>
	</g>
	<g>
		<path style="fill:#6EAFDB;" d="M401.503,408.718c0,0-17.231-33.9-11.235-50.737c5.996-16.837,28.327-10.187,28.258,9.119
			c0,0,16.626-14.086,25.653,3.702C453.205,388.59,413.996,407.512,401.503,408.718z"/>
		<path style="fill:#89CAEF;" d="M398.503,403.718c0,0-17.231-33.901-11.235-50.737c5.996-16.837,28.327-10.187,28.258,9.119
			c0,0,16.626-14.086,25.653,3.702C450.205,383.59,410.996,402.511,398.503,403.718z"/>
		<path style="fill:#197899;" d="M396.403,373.288c-1.811-0.389-2.963-2.172-2.575-3.982c0.389-1.811,2.172-2.963,3.982-2.575
			c1.811,0.389,2.964,2.172,2.575,3.982C399.997,372.523,398.214,373.676,396.403,373.288z"/>
		<path style="fill:#197899;" d="M421.199,384.966c-1.811-0.389-2.964-2.172-2.575-3.982c0.389-1.811,2.172-2.964,3.982-2.575
			c1.811,0.389,2.963,2.172,2.575,3.983C424.792,384.202,423.009,385.354,421.199,384.966z"/>
		<path style="fill:#197899;" d="M408.339,383.6c-1.016,0-2.128-0.252-3.224-0.978c-4.142-2.747-2.143-8.239-2.122-8.295
			c0.097-0.258,0.384-0.388,0.643-0.292c0.258,0.096,0.39,0.384,0.293,0.643c-0.072,0.195-1.737,4.806,1.738,7.11
			c1.719,1.141,3.518,0.866,4.724,0.434c1.998-0.715,3.326-2.132,3.508-2.724c0.082-0.265,0.361-0.415,0.625-0.331
			c0.264,0.081,0.412,0.36,0.331,0.624c-0.315,1.024-1.982,2.606-4.128,3.372C410.061,383.402,409.238,383.599,408.339,383.6z"/>
		<polygon style="fill:#6EAFDB;" points="401.503,408.718 398.503,403.718 422.75,395.5 419.75,400.125 		"/>
		<path style="fill:none;stroke:#973F9E;stroke-width:3;stroke-linecap:round;stroke-miterlimit:10;" d="M422.751,411.353
			c4.881-2.279,9.522-4.879,12.749-7.635"/>
		<path style="fill:none;stroke:#973F9E;stroke-width:3;stroke-linecap:round;stroke-miterlimit:10;" d="M380.855,385.5
			c0,0,8.707,23.5,18.676,34.5c0,0,6.367-1.829,14.047-4.778"/>
		<path style="fill:none;stroke:#973F9E;stroke-width:3;stroke-linecap:round;stroke-miterlimit:10;" d="M386,341.946
			c0,0,15.507-16.737,28.878,1.409"/>
	</g>
	<g>
		<g>
			
				<text transform="matrix(0.9925 -0.1219 0.1219 0.9925 374.9626 260.2578)" style="fill:#4893BC; font-family:'CaviarDreams-Bold'; font-size:112.418px;">@</text>
			
				<text transform="matrix(0.9925 -0.1219 0.1219 0.9925 376.9627 255.2575)" style="fill:#89CAEF; font-family:'CaviarDreams-Bold'; font-size:112.418px;">@</text>
			<path style="fill:#4893BC;" d="M440.819,253.019l1.939-4.984c0,0-3.74,2.616-4.68,3.25c-0.94,0.634,2.432,1.901,2.432,1.901
				L440.819,253.019z"/>
		</g>
		<path style="fill:none;stroke:#973F9E;stroke-width:3;stroke-linecap:round;stroke-miterlimit:10;" d="M462.809,204.329
			c0.84,4.965,0.722,10.635-0.719,17.21"/>
		<path style="fill:none;stroke:#973F9E;stroke-width:3;stroke-linecap:round;stroke-miterlimit:10;" d="M422.762,170.613
			c0,0,17.746,2.6,27.074,11.376c3.462,3.257,6.625,6.889,9.017,11.155"/>
	</g>
	<g>
		<g>
			<polygon style="fill:#74959E;" points="425.285,109.285 425.64,105.844 423.404,107.186 			"/>
			<g>
				<polygon style="fill:#4791BA;" points="410.32,124.653 411.457,120.26 407.466,116.753 406.011,119.464 408.243,124.762 				"/>
				
					<rect x="402.881" y="95.865" transform="matrix(0.8574 -0.5146 0.5146 0.8574 4.3945 227.2174)" style="fill:#74959E;" width="18.685" height="19.627"/>
				
					<rect x="403.237" y="92.425" transform="matrix(0.8574 -0.5146 0.5146 0.8574 6.2156 226.9097)" style="fill:#A7BBC4;" width="18.685" height="19.627"/>
				<path style="fill:#4791BA;" d="M408.981,126.206l-44.786,26.882c-1.561,0.937-3.605,0.426-4.542-1.135l-12.824-21.365
					c-0.937-1.561-0.426-3.605,1.135-4.542l44.786-26.882c1.561-0.937,3.605-0.426,4.542,1.135l12.824,21.365
					C411.053,123.225,410.542,125.269,408.981,126.206z"/>
				<polygon style="fill:#4791BA;" points="346.532,127.845 347.559,123.838 353.267,122.601 353.561,128.352 348.6,130.887 				"/>
				<path style="fill:#6EAFDB;" d="M409.93,122.409l-44.786,26.882c-1.561,0.937-3.605,0.426-4.542-1.135l-12.824-21.365
					c-0.937-1.561-0.426-3.605,1.135-4.542l44.786-26.882c1.561-0.937,3.605-0.426,4.542,1.135l12.824,21.365
					C412.001,119.429,411.491,121.473,409.93,122.409z"/>
				<path style="fill:#D38D42;" d="M358.812,133.5L358.812,133.5c-0.657,0.394-0.872,1.255-0.478,1.912l4.609,7.678
					c0.395,0.657,1.255,0.872,1.912,0.478l0,0c0.657-0.394,0.872-1.255,0.478-1.912l-4.609-7.678
					C360.329,133.32,359.469,133.105,358.812,133.5z"/>
				<path style="fill:#ED7D5F;" d="M366.643,133.664l-0.471,0.283c-0.528,0.317-0.7,1.008-0.383,1.535l2.745,4.572
					c0.317,0.528,1.008,0.7,1.535,0.384l0.471-0.283c0.528-0.317,0.7-1.008,0.383-1.535l-2.744-4.572
					C367.862,133.52,367.171,133.348,366.643,133.664z"/>
				
					<rect x="346.184" y="114.649" transform="matrix(0.8574 -0.5146 0.5146 0.8574 -6.129 209.845)" style="fill:#66A8CC;" width="58.854" height="2.666"/>
			</g>
		</g>
		
			<line style="fill:none;stroke:#973F9E;stroke-width:3;stroke-linecap:round;stroke-miterlimit:10;" x1="384.323" y1="92.384" x2="390.018" y2="88.923"/>
		
			<line style="fill:none;stroke:#973F9E;stroke-width:3;stroke-linecap:round;stroke-miterlimit:10;" x1="355.835" y1="109.701" x2="374.991" y2="98.057"/>
		<path style="fill:none;stroke:#973F9E;stroke-width:3;stroke-linecap:round;stroke-miterlimit:10;" d="M415.697,128.333
			c0,0,4.637-1.674,4.637-6.003c0-4.33,12.667-8.534,11-14.765"/>
	</g>
	<g>
		<path style="fill:#89CAEF;" d="M264.339,397.332l-7.1-38c0,0,46.436-12,46.266-11c-0.171,1,5.638,32.53,7.783,41
			c1.661,6.559,7.188,28.907-6.195,35c-15.762,7.176-23.923-21.315,1.985-25.315l-6.112-32.018l-33.505,6.537
			c0,0,2.37,25.13,4.288,32.13s2.818,22.333-10.965,23.333s-19.117-24.667,1.884-25.667l1.672-0.333V397.332z"/>
		<path style="fill:none;stroke:#973F9E;stroke-width:3;stroke-linecap:round;stroke-miterlimit:10;" d="M267.23,434.913
			c5.57-2.034,9.646-6.808,9.613-13.813"/>
		<path style="fill:none;stroke:#973F9E;stroke-width:3;stroke-linecap:round;stroke-miterlimit:10;" d="M243.01,416.838
			c0,0-2.722,13.331,10.773,17.994"/>
		<path style="fill:none;stroke:#973F9E;stroke-width:3;stroke-linecap:round;stroke-miterlimit:10;" d="M317.612,393.399
			c0,0,9.289,24.86-7.009,32.436"/>
	</g>
	<g>
		<path style="fill:#C6D8E0;" d="M74.646,306.178c0,0-23.36-32.631-35.603-43.288l35.603-22.653c0,0,9.616,1.224,16.643,6.121
			c0,0,16.474,18.362,25.625,44.89L74.646,306.178z"/>
		<path style="fill:#D9E6ED;" d="M88.668,290.36c0,0-17.14,33.064-12.651,55.917l58.766,7.754l10.202-46.931
			C144.985,307.099,106.216,302.186,88.668,290.36z"/>
		<g>
			<path style="fill:#6EAFDB;" d="M67.492,375.933l15.711,47.729l63.95-17.401c0,0-15.443-45.733-15.914-50.497
				c-0.471-4.764-2.591-6.16-6.595-5.322c-4.004,0.837-17.664,4.134-21.433,5.835c-3.768,1.701-4.239,9.04-4.239,9.04
				L67.492,375.933z"/>
			<polygon style="fill:#FFFFFF;" points="83.109,422.157 70.779,370.273 136.833,355.177 147.152,408.978 			"/>
			<path style="fill:#89CAEF;" d="M80.493,380.009l2.71,43.652l63.95-14.684c0,0-2.442-41.968-2.913-45.988
				c-0.471-4.02-2.591-5.198-6.595-4.491c-4.004,0.707-17.664,3.488-21.432,4.924c-3.768,1.435-4.239,7.629-4.239,7.629
				L80.493,380.009z"/>
		</g>
		<path style="fill:#D9E6ED;" d="M74.646,240.237c0,0,8.8,0.816,16.643,6.121l-13.786,6.451L74.646,240.237z"/>
		
			<line style="fill:none;stroke:#973F9E;stroke-width:3;stroke-linecap:round;stroke-miterlimit:10;" x1="66.316" y1="407.055" x2="61.808" y2="393.025"/>
		<polyline style="fill:none;stroke:#973F9E;stroke-width:3;stroke-linecap:round;stroke-miterlimit:10;" points="125.718,423.662 
			75.267,434.913 70.824,421.085 		"/>
		<path style="fill:none;stroke:#973F9E;stroke-width:3;stroke-linecap:round;stroke-miterlimit:10;" d="M56.345,293.67
			c0,0-25.383-27.587-30.879-31.714l30.879-21.718"/>
	</g>
	<g>
		<g>
			<path style="fill:#89CAEF;" d="M110.864,100.972c-7.192,4.475-11.375,12.514-10.914,20.98l8.276-0.45
				c-0.296-5.445,2.393-10.616,7.017-13.493c4.464-2.777,9.933-3.017,14.631-0.641l3.741-7.397
				C126.311,96.279,117.806,96.652,110.864,100.972z"/>
			<path style="fill:#89CAEF;" d="M101.323,85.638c-9.359,5.824-15.89,14.943-18.389,25.679c-0.634,2.724-0.995,5.512-1.069,8.286
				l6.213,0.169c0.064-2.356,0.371-4.727,0.91-7.045c2.123-9.118,7.671-16.865,15.62-21.811c7.95-4.947,17.349-6.5,26.468-4.378
				c1.847,0.431,3.663,1.009,5.4,1.722l2.36-5.751c-2.044-0.839-4.181-1.519-6.351-2.025
				C121.749,77.984,110.682,79.814,101.323,85.638z"/>
			<path style="fill:#89CAEF;" d="M136.419,63.586c-31.478-7.332-63.054,12.316-70.384,43.795c-0.772,3.315-1.26,6.708-1.448,10.084
				l6.206,0.348c0.17-3.019,0.606-6.055,1.297-9.022c6.553-28.139,34.779-45.704,62.921-39.151c1.923,0.448,3.834,1.007,5.68,1.661
				l2.076-5.86C140.702,64.711,138.567,64.087,136.419,63.586z"/>
			<path style="fill:#89CAEF;" d="M121.817,118.967c-3.204,1.994-4.185,6.208-2.192,9.412c1.994,3.204,6.207,4.186,9.412,2.192
				c3.204-1.994,4.186-6.208,2.192-9.412C129.235,117.955,125.021,116.974,121.817,118.967z"/>
		</g>
		<path style="fill:none;stroke:#973F9E;stroke-width:3;stroke-linecap:round;stroke-miterlimit:10;" d="M57.998,94.94
			c1.262-3.857,2.667-7.497,4.115-10.532"/>
		<path style="fill:none;stroke:#973F9E;stroke-width:3;stroke-linecap:round;stroke-miterlimit:10;" d="M77.979,126.969
			c0,0-18.123,0.967-23.282,0c-3.199-0.6-2.183-11.364,0.665-22.839"/>
		
			<line style="fill:none;stroke:#973F9E;stroke-width:3;stroke-linecap:round;stroke-miterlimit:10;" x1="142.766" y1="94.94" x2="151.175" y2="66.996"/>
	</g>
	<g>
		<g>
			<path style="fill:#6EAFDB;" d="M295.74,84.781l-68.705,15.187c-2.449,0.541-4.896-1.02-5.437-3.468l-7.752-35.07
				c-0.541-2.449,1.02-4.896,3.469-5.437l68.705-15.187c2.449-0.541,4.896,1.02,5.437,3.468l7.752,35.07
				C299.75,81.793,298.189,84.239,295.74,84.781z"/>
			<polygon style="fill:#6EAFDB;" points="298.999,81.985 301.319,75.774 297.071,76.28 296.632,79.455 			"/>
			<polygon style="fill:#6EAFDB;" points="214.281,58.302 216.482,52.419 218.074,55.176 218.346,57.054 217.094,59.532 
				215.596,60.049 			"/>
			<path style="fill:#89CAEF;" d="M297.955,78.872l-68.705,15.187c-2.449,0.541-4.896-1.02-5.437-3.468l-7.752-35.07
				c-0.541-2.449,1.02-4.896,3.469-5.437l68.705-15.187c2.449-0.541,4.896,1.019,5.437,3.468l7.752,35.07
				C301.965,75.884,300.404,78.331,297.955,78.872z"/>
			
				<text transform="matrix(0.9776 -0.2107 0.2107 0.9776 253.172 79.9953)" style="fill:#A2DBF4; font-family:'CaviarDreams-Bold'; font-size:24.7124px;">esc</text>
			
				<text transform="matrix(0.9776 -0.2107 0.2107 0.9776 253.1717 79.2571)" style="fill:#5096BC; font-family:'CaviarDreams-Bold'; font-size:24.7124px;">esc</text>
		</g>
		<path style="fill:none;stroke:#973F9E;stroke-width:3;stroke-linecap:round;stroke-miterlimit:10;" d="M231.094,36.976
			c11.604-2.503,24.111-5.125,24.111-5.125"/>
		<path style="fill:none;stroke:#973F9E;stroke-width:3;stroke-linecap:round;stroke-miterlimit:10;" d="M207.853,73.768
			c0,0-2.205-12.789-3.037-17.519c-0.832-4.729,0.289-13.435,11.497-16.015c1.747-0.402,3.895-0.882,6.275-1.407"/>
		
			<line style="fill:none;stroke:#973F9E;stroke-width:3;stroke-linecap:round;stroke-miterlimit:10;" x1="301.319" y1="42.169" x2="307.955" y2="72.478"/>
	</g>
</g>
<g id="DESIGNED_BY_FREEPIK">
	<g>
		<g id="XMLID_2_">
			<g id="XMLID_151_">
				<path id="XMLID_174_" style="fill:#F9FBFC;" d="M260.104,465.465c-0.432,0.443-0.803,0.931-1.108,1.453l-0.465-0.241
					c-0.067-0.298-0.349-0.503-0.659-0.466c-0.331,0.039-0.568,0.339-0.529,0.67s0.339,0.568,0.67,0.529
					c0.065-0.008,0.127-0.026,0.184-0.052l0.452,0.234c-0.251,0.554-0.433,1.139-0.539,1.744l0.746,0.132
					c0.23-1.306,0.85-2.507,1.792-3.473L260.104,465.465z"/>
				<path id="XMLID_172_" style="fill:#F9FBFC;" d="M265.592,463.163c-0.171,0-0.341,0.006-0.51,0.017l-0.074-0.626
					c0.188-0.149,0.296-0.389,0.266-0.645c-0.046-0.393-0.402-0.674-0.795-0.628s-0.674,0.402-0.628,0.795
					c0.03,0.254,0.189,0.461,0.405,0.564l0.073,0.624c-0.714,0.116-1.403,0.332-2.06,0.646l0.327,0.684
					c0.934-0.447,1.942-0.673,2.995-0.673c0.496,0,0.993,0.053,1.475,0.158l0.161-0.741
					C266.693,463.222,266.142,463.163,265.592,463.163z"/>
				<path id="XMLID_168_" style="fill:#F9FBFC;" d="M272.194,465.711c0.331-0.04,0.566-0.341,0.525-0.672
					c-0.04-0.331-0.341-0.566-0.672-0.526c-0.309,0.038-0.535,0.304-0.53,0.609l-0.416,0.363c-0.418-0.43-0.89-0.813-1.408-1.139
					l-0.404,0.641c1.134,0.715,2.021,1.726,2.563,2.925l0.69-0.313c-0.251-0.554-0.568-1.072-0.942-1.545l0.402-0.351
					C272.065,465.716,272.129,465.719,272.194,465.711z"/>
				<path id="XMLID_163_" style="fill:#F9FBFC;" d="M265.044,473.372c-0.386,0.023-0.775,0.035-1.157,0.035
					c-0.88,0-1.733-0.061-2.478-0.179c-0.39-0.062-0.846-0.155-1.27-0.292c1.046,1.861,3.069,3.125,5.388,3.125
					c2.855,0,5.262-1.916,5.95-4.504c-0.682,0.449-1.505,0.825-2.459,1.123C267.839,473.047,266.464,473.286,265.044,473.372z"/>
				<path id="XMLID_153_" style="fill:#F9FBFC;" d="M265.592,464.68c-3.352,0-6.08,2.666-6.08,5.943
					c0,0.426,0.046,0.849,0.137,1.261c0.673,0.483,2.706,0.89,5.347,0.731c2.879-0.173,5.297-0.957,6.672-2.159
					c-0.005-0.195-0.021-0.39-0.045-0.582C271.244,466.913,268.651,464.68,265.592,464.68z M263.432,471.194
					c-1.02,0-1.85-0.83-1.85-1.85c0-1.02,0.83-1.85,1.85-1.85c1.02,0,1.85,0.83,1.85,1.85
					C265.282,470.365,264.452,471.194,263.432,471.194z M268.17,470.286c-0.75,0-1.36-0.61-1.36-1.36s0.61-1.361,1.36-1.361
					c0.75,0,1.361,0.61,1.361,1.361S268.92,470.286,268.17,470.286z"/>
			</g>
			<path id="XMLID_147_" style="fill:#F9FBFC;" d="M281.595,466.547c-0.295-0.116-0.806-0.309-1.382-0.237
				c-0.551,0.069-0.844,0.341-0.844,1.007v0.866h2.228v1.717h-2.228v5.455h-1.932v-5.455h-1.34v-1.717h1.34v-0.888
				c0-1.68,0.895-2.783,2.568-2.783c0.642,0,1.157,0.122,1.59,0.308L281.595,466.547z"/>
			<path id="XMLID_135_" style="fill:#F9FBFC;" d="M286.298,469.879c-0.177-0.03-0.358-0.046-0.526-0.046
				c-0.896,0-1.51,0.548-1.51,1.614v3.908h-1.932v-7.172h1.873v0.785c0.451-0.673,1.14-0.977,2.021-0.977
				c0.414,0,0.848,0.128,1.094,0.337L286.298,469.879z"/>
			<path id="XMLID_129_" style="fill:#F9FBFC;" d="M293.965,471.757c0,0.222-0.015,0.489-0.037,0.651h-5.085
				c0.207,1.036,0.933,1.488,1.843,1.488c0.622,0,1.295-0.252,1.813-0.688l1.133,1.243c-0.814,0.748-1.85,1.088-3.057,1.088
				c-2.198,0-3.723-1.495-3.723-3.753c0-2.258,1.48-3.797,3.626-3.797C292.544,467.99,293.958,469.522,293.965,471.757z
				 M288.851,471.091h3.175c-0.178-0.918-0.733-1.436-1.562-1.436C289.554,469.655,289.021,470.203,288.851,471.091z"/>
			<path id="XMLID_116_" style="fill:#F9FBFC;" d="M301.618,471.757c0,0.222-0.015,0.489-0.037,0.651h-5.085
				c0.207,1.036,0.932,1.488,1.843,1.488c0.622,0,1.295-0.252,1.813-0.688l1.132,1.243c-0.814,0.748-1.85,1.088-3.057,1.088
				c-2.198,0-3.723-1.495-3.723-3.753c0-2.258,1.48-3.797,3.627-3.797C300.197,467.99,301.611,469.522,301.618,471.757z
				 M296.504,471.091h3.175c-0.178-0.918-0.733-1.436-1.562-1.436C297.207,469.655,296.674,470.203,296.504,471.091z"/>
			<path id="XMLID_63_" style="fill:#F9FBFC;" d="M309.964,471.764c0,2.154-1.495,3.775-3.471,3.775
				c-0.962,0-1.643-0.378-2.109-0.933v3.708h-1.924v-10.133h1.887v0.792c0.466-0.585,1.155-0.984,2.139-0.984
				C308.469,467.99,309.964,469.61,309.964,471.764z M304.287,471.764c0,1.132,0.747,1.976,1.843,1.976
				c1.14,0,1.85-0.881,1.85-1.976c0-1.095-0.711-1.976-1.85-1.976C305.035,469.788,304.287,470.632,304.287,471.764z"/>
			<path id="XMLID_27_" style="fill:#F9FBFC;" d="M313.068,465.836c0,0.696-0.54,1.229-1.236,1.229
				c-0.696,0-1.229-0.533-1.229-1.229c0-0.696,0.533-1.243,1.229-1.243C312.527,464.592,313.068,465.14,313.068,465.836z
				 M312.809,475.354h-1.932v-7.172h1.932V475.354z"/>
			<path id="XMLID_14_" style="fill:#F9FBFC;" d="M316.032,470.736l2.702-2.554h2.368l-3.479,3.375l3.501,3.797h-2.376l-2.716-2.901
				v2.901H314.1v-10.658h1.932V470.736z"/>
		</g>
		<g>
			<path style="fill:#F9FBFC;" d="M184.412,475.289v-1.055c-0.527,0.718-1.391,1.23-2.387,1.23c-1.846,0-3.149-1.406-3.149-3.706
				c0-2.256,1.289-3.721,3.149-3.721c0.952,0,1.816,0.469,2.387,1.245v-3.765h1.099v9.77H184.412z M184.412,473.37v-3.208
				c-0.395-0.615-1.245-1.143-2.124-1.143c-1.421,0-2.27,1.172-2.27,2.739c0,1.567,0.85,2.724,2.27,2.724
				C183.168,474.483,184.017,473.986,184.412,473.37z"/>
			<path style="fill:#F9FBFC;" d="M186.932,471.744c0-2.051,1.465-3.706,3.486-3.706c2.139,0,3.398,1.67,3.398,3.794v0.279h-5.727
				c0.088,1.333,1.025,2.446,2.549,2.446c0.806,0,1.626-0.322,2.182-0.894l0.527,0.718c-0.703,0.703-1.655,1.084-2.812,1.084
				C188.441,475.465,186.932,473.956,186.932,471.744z M190.404,468.947c-1.509,0-2.256,1.274-2.314,2.358h4.643
				C192.718,470.25,192.015,468.947,190.404,468.947z"/>
			<path style="fill:#F9FBFC;" d="M194.607,474.351l0.571-0.791c0.469,0.542,1.362,1.011,2.329,1.011c1.084,0,1.67-0.513,1.67-1.216
				c0-1.714-4.38-0.659-4.38-3.281c0-1.098,0.952-2.036,2.636-2.036c1.201,0,2.051,0.454,2.622,1.026l-0.513,0.762
				c-0.424-0.513-1.201-0.894-2.109-0.894c-0.967,0-1.567,0.483-1.567,1.113c0,1.552,4.38,0.527,4.38,3.281
				c0,1.187-0.952,2.138-2.783,2.138C196.306,475.465,195.325,475.113,194.607,474.351z"/>
			<path style="fill:#F9FBFC;" d="M201.477,466.471c0-0.41,0.337-0.747,0.732-0.747c0.41,0,0.747,0.337,0.747,0.747
				c0,0.41-0.337,0.732-0.747,0.732C201.814,467.203,201.477,466.881,201.477,466.471z M201.667,475.289v-7.075h1.099v7.075H201.667
				z"/>
			<path style="fill:#F9FBFC;" d="M204.582,477.105l0.556-0.82c0.586,0.703,1.289,0.967,2.3,0.967c1.172,0,2.27-0.571,2.27-2.124
				v-1.011c-0.513,0.718-1.377,1.26-2.373,1.26c-1.845,0-3.149-1.377-3.149-3.662c0-2.27,1.289-3.677,3.149-3.677
				c0.952,0,1.802,0.469,2.373,1.245v-1.069h1.099v6.87c0,2.344-1.641,3.076-3.369,3.076
				C206.237,478.16,205.417,477.926,204.582,477.105z M209.709,473.253v-3.091c-0.381-0.615-1.23-1.143-2.109-1.143
				c-1.421,0-2.27,1.128-2.27,2.695c0,1.553,0.849,2.695,2.27,2.695C208.478,474.41,209.328,473.868,209.709,473.253z"/>
			<path style="fill:#F9FBFC;" d="M217.413,475.289v-4.629c0-1.245-0.63-1.641-1.582-1.641c-0.865,0-1.685,0.527-2.095,1.099v5.17
				h-1.099v-7.075h1.099v1.025c0.498-0.586,1.464-1.201,2.519-1.201c1.48,0,2.256,0.747,2.256,2.285v4.966H217.413z"/>
			<path style="fill:#F9FBFC;" d="M219.932,471.744c0-2.051,1.465-3.706,3.486-3.706c2.139,0,3.398,1.67,3.398,3.794v0.279h-5.727
				c0.088,1.333,1.025,2.446,2.549,2.446c0.806,0,1.626-0.322,2.183-0.894l0.527,0.718c-0.703,0.703-1.655,1.084-2.812,1.084
				C221.441,475.465,219.932,473.956,219.932,471.744z M223.404,468.947c-1.509,0-2.256,1.274-2.314,2.358h4.643
				C225.718,470.25,225.015,468.947,223.404,468.947z"/>
			<path style="fill:#F9FBFC;" d="M233.35,475.289v-1.055c-0.527,0.718-1.392,1.23-2.388,1.23c-1.846,0-3.149-1.406-3.149-3.706
				c0-2.256,1.289-3.721,3.149-3.721c0.952,0,1.817,0.469,2.388,1.245v-3.765h1.098v9.77H233.35z M233.35,473.37v-3.208
				c-0.396-0.615-1.245-1.143-2.124-1.143c-1.421,0-2.27,1.172-2.27,2.739c0,1.567,0.849,2.724,2.27,2.724
				C232.105,474.483,232.954,473.986,233.35,473.37z"/>
			<path style="fill:#F9FBFC;" d="M239.692,475.289v-9.77h1.098v3.765c0.572-0.776,1.421-1.245,2.388-1.245
				c1.845,0,3.149,1.465,3.149,3.721c0,2.299-1.304,3.706-3.149,3.706c-0.996,0-1.86-0.513-2.388-1.23v1.055H239.692z
				 M242.9,474.483c1.436,0,2.286-1.157,2.286-2.724c0-1.568-0.85-2.739-2.286-2.739c-0.864,0-1.728,0.527-2.109,1.143v3.208
				C241.171,473.986,242.036,474.483,242.9,474.483z"/>
			<path style="fill:#F9FBFC;" d="M247.529,477.061c0.161,0.073,0.425,0.117,0.601,0.117c0.483,0,0.805-0.161,1.055-0.747
				l0.469-1.069l-2.959-7.148h1.187l2.358,5.8l2.344-5.8h1.201l-3.545,8.51c-0.425,1.025-1.143,1.421-2.08,1.435
				c-0.234,0-0.601-0.044-0.805-0.103L247.529,477.061z"/>
		</g>
	</g>
</g>
</svg>
