<?xml version="1.0" encoding="utf-8"?>
<!-- Generator: Adobe Illustrator 27.5.0, SVG Export Plug-In . SVG Version: 6.00 Build 0)  -->
<svg version="1.1" xmlns="http://www.w3.org/2000/svg" xmlns:xlink="http://www.w3.org/1999/xlink" x="0px" y="0px"
	 viewBox="0 0 3710 3710" style="enable-background:new 0 0 3710 3710;" xml:space="preserve">
<g id="Background">
	<g>
		<g>
			<rect style="fill:#FFFFFF;" width="3710" height="3710"/>
		</g>
	</g>
</g>
<g id="Illustration">
	<g>
		<path style="fill:#F4F7FA;" d="M1158.41,602.008c-95.748,139.574,16.519,365.857-125.554,470.828
			c-138.297,102.182-308.191-65.308-438.527,22.65c-193.346,130.479-158.038,727.529,124.645,1098.488
			c85.012,111.56,156.045,154.967,187.505,281.136c67.554,270.917-169.865,432.075-124.684,566.067
			c101.73,301.699,1666.262,554.86,2294.022-351.845c293.189-423.469,337.057-1034.962,75.101-1499.394
			C2677.569,350.715,1373.251,288.829,1158.41,602.008z"/>
		<g>
			<g>
				<g>
					<defs>
						<path id="SVGID_1_" d="M1807.428,3051.937c-42.716-172.35-79.834-433.379,7.132-713.662
							c99.862-321.842,272.063-374.927,448.305-713.791c251.58-483.718,35.733-863.676,269.101-999.897
							c113.805-66.428,284.067-53.843,383.485,28.718c283.643,235.554,132.533,1158.587-369.56,1485.866
							c-227.081,148.02-413.164,114.638-590.19,314.856C1799.274,2630.944,1792.077,2879.133,1807.428,3051.937z"/>
					</defs>
					
						<linearGradient id="SVGID_00000176722705766158310540000011681278460113187204_" gradientUnits="userSpaceOnUse" x1="1761.7344" y1="1816.9708" x2="3057.2954" y2="1816.9708">
						<stop  offset="0" style="stop-color:#AA80F9"/>
						<stop  offset="0.9964" style="stop-color:#6165D7"/>
					</linearGradient>
					
						<use xlink:href="#SVGID_1_"  style="overflow:visible;fill:url(#SVGID_00000176722705766158310540000011681278460113187204_);"/>
					<clipPath id="SVGID_00000098929299414492815070000016481327716425194679_">
						<use xlink:href="#SVGID_1_"  style="overflow:visible;"/>
					</clipPath>
					<g style="clip-path:url(#SVGID_00000098929299414492815070000016481327716425194679_);">
						<path style="fill:#FFFFFF;" d="M1804.214,2625.781l-3.328-1.114c23.334-69.648,52.808-137.619,87.606-202.028
							c80.004-148.081,161.885-226.6,265.549-326.01c67.394-64.626,143.779-137.877,233.631-244.305
							c168.065-199.07,220.844-269.428,271.959-385.143c101.197-229.101,104.01-441.033,96.681-546.973
							c-10.4-150.286-49.78-295.492-117.05-431.584l3.147-1.556c67.472,136.506,106.972,282.154,117.404,432.898
							c7.352,106.263,4.53,318.841-96.974,548.632c-51.291,116.118-104.165,186.618-272.487,385.991
							c-89.969,106.568-166.426,179.886-233.883,244.574c-103.443,99.196-185.148,177.548-264.892,325.145
							C1856.878,2488.537,1827.483,2556.324,1804.214,2625.781z"/>
						<path style="fill:#FFFFFF;" d="M2718.148,1303.666l0.162-2.885c9.816-173.727-92.723-294.249-180.47-364.761
							c-95.194-76.496-193.942-112.276-194.928-112.629l1.182-3.304c0.991,0.354,100.294,36.336,195.945,113.198
							c87.894,70.629,190.516,191.117,181.932,364.748c15.617-7.569,97.992-49.821,175.437-133.759
							c78.911-85.525,168.706-233.095,148.375-450.43l3.494-0.327c20.456,218.686-69.945,367.177-149.385,453.238
							c-86.049,93.222-178.188,135.308-179.108,135.724L2718.148,1303.666z"/>
						<path style="fill:#FFFFFF;" d="M2688.503,1859.917c-32.603,0-62.651-3.079-88.9-7.459
							c-96.608-16.115-163.938-52.835-164.608-53.205l-1.289-0.712l0.479-1.393c57.305-166.963,27.86-295.308-6.934-373.575
							c-37.717-84.84-89.672-130.796-90.191-131.25l2.306-2.643c0.526,0.458,52.979,46.819,91.022,132.311
							c34.999,78.647,64.654,207.448,7.6,374.881c9.763,5.129,73.606,37.368,162.314,52.146
							c88.551,14.753,220.721,14.625,347.523-69.778l1.945,2.922C2859.575,1842.193,2766.704,1859.917,2688.503,1859.917z"/>
						<path style="fill:#FFFFFF;" d="M2468.174,2170.347c-72.194,0-128.744-12.786-169.612-27.242
							c-79.772-28.216-118.748-68.789-119.132-69.196l-0.864-0.913l0.588-1.112c88.355-167.358,4.062-458.124,3.2-461.041
							l3.365-0.995c0.864,2.924,85.179,293.734-2.863,462.531c6.144,6.054,44.566,41.885,117.097,67.494
							c72.991,25.772,196.444,46.168,370.068-3.033l0.957,3.375C2593.444,2162.188,2525.818,2170.347,2468.174,2170.347z"/>
					</g>
				</g>
			</g>
			<g>
				<g>
					<defs>
						<path id="SVGID_00000108989758332623120020000012354039763046579632_" d="M1606.28,3000.883
							c-17.914-108.354-28.211-277.576,59.988-428.912c153.869-264.017,434.331-176.439,702.784-459.296
							c216.519-228.135,148.285-405.447,388.204-557.062c40.158-25.378,252.349-165.032,410.144-80.916
							c88.92,47.398,121.136,144.707,127.184,162.974c91.406,276.087-189.809,708.339-556.347,906.039
							c-210.591,113.586-278.534,76.465-649.125,208.939C1871.349,2830.492,1707.846,2930.729,1606.28,3000.883z"/>
					</defs>
					
						<linearGradient id="SVGID_00000105407779034082984280000001819947735209606561_" gradientUnits="userSpaceOnUse" x1="3179.8279" y1="5533.8032" x2="3074.4985" y2="5069.1133">
						<stop  offset="0.0036" style="stop-color:#E38DDD"/>
						<stop  offset="1" style="stop-color:#9571F6"/>
					</linearGradient>
					
						<use xlink:href="#SVGID_00000108989758332623120020000012354039763046579632_"  style="overflow:visible;fill:url(#SVGID_00000105407779034082984280000001819947735209606561_);"/>
					<clipPath id="SVGID_00000073679290849262272110000006871516289017100970_">
						<use xlink:href="#SVGID_00000108989758332623120020000012354039763046579632_"  style="overflow:visible;"/>
					</clipPath>
					<g style="clip-path:url(#SVGID_00000073679290849262272110000006871516289017100970_);">
						<path style="fill:#FFFFFF;" d="M1574.398,3131.163l-3.437-0.715c53.905-258.925,156.137-432.878,303.857-517.032
							c72.3-41.189,129.876-47.704,190.833-54.603c65.604-7.425,133.442-15.104,222.996-69.259
							c87.039-52.633,118.24-103.307,157.745-167.463c35.51-57.672,79.703-129.444,178.892-225.045
							c86.942-83.797,150.252-123.013,206.11-157.615c60.538-37.499,108.354-67.12,163.727-139.68
							c90.434-118.504,137.698-270.447,140.479-451.609l3.508,0.055c-2.793,181.928-50.298,334.569-141.197,453.683
							c-55.766,73.075-103.825,102.845-164.669,140.535c-55.708,34.508-118.851,73.621-205.522,157.159
							c-98.869,95.291-142.934,166.855-178.34,224.357c-39.752,64.562-71.15,115.554-158.916,168.628
							c-90.211,54.552-158.438,62.273-224.418,69.74c-60.587,6.858-117.814,13.334-189.489,54.165
							C1729.748,2700.098,1628.088,2873.266,1574.398,3131.163z"/>
						<path style="fill:#FFFFFF;" d="M2830.561,1958.17c-7.469,0-14.982-0.114-22.602-0.346l-2.348-0.072l0.734-2.231
							c1.19-3.615,117.496-363.226-15.02-511.92l2.619-2.333c38.655,43.374,80.208,133.212,58.646,314.883
							c-11.749,99.002-37.567,183.578-42.195,198.232c197.193,5.432,343.814-69.204,432.212-132.884
							c96.206-69.301,146.12-140.971,146.613-141.686l2.892,1.989c-0.496,0.72-50.683,72.807-147.34,142.463
							C3158.977,1886.093,3018.582,1958.17,2830.561,1958.17z"/>
						<path style="fill:#FFFFFF;" d="M2845.022,2264.458c-30.364,0-58.595-1.577-84.212-4.043
							c-137.721-13.261-231.124-54.412-232.052-54.826l-1.378-0.615l0.402-1.454c51.785-187.495,6.102-454.245,5.633-456.917
							l3.457-0.606c0.467,2.674,46.042,268.817-5.303,456.983c12.052,5.119,101.607,41.638,229.709,53.954
							c126.55,12.169,317.69,2.522,509.607-112.537l1.805,3.011C3118.759,2239.691,2965.316,2264.458,2845.022,2264.458z"/>
						<path style="fill:#FFFFFF;" d="M2681.685,2701.759c-353.125,0-555.89-146.063-557.948-147.576l-1.49-1.095l1.172-1.431
							c142.367-173.79,86.92-460.961,86.344-463.842l3.44-0.688c0.145,0.724,14.463,73.492,10.89,166.884
							c-3.283,85.818-22.767,207.042-96.771,298.411c19.686,13.688,229.339,153.159,582.11,145.528l0.075,3.508
							C2700.151,2701.66,2690.838,2701.759,2681.685,2701.759z"/>
					</g>
				</g>
			</g>
			<g>
				<defs>
					<path id="SVGID_00000170970047120359206030000001917843243154221969_" d="M1649.871,2868.314
						c76.159-39.442,199.442-94.617,359.026-126.198c283.848-56.174,399.252,18.361,530.183-79.002
						c135.53-100.783,75.959-228.302,236.83-339.453c13.527-9.345,185.721-125.032,315.724-53.545
						c90.945,50.011,112.411,164.774,122.484,218.622c39.091,208.988-44.948,506.413-279.143,624.911
						c-222.036,112.347-466.986,7.471-544.671-26.399c-136.286-59.421-161.829-119.668-301.009-175.771
						C1920.036,2843.25,1757.696,2851.685,1649.871,2868.314z"/>
				</defs>
				
					<linearGradient id="SVGID_00000036239407094354591660000009752150914733952642_" gradientUnits="userSpaceOnUse" x1="2277.3848" y1="2380.5535" x2="3801.001" y2="2380.5535" gradientTransform="matrix(0.9895 0.1448 -0.1448 0.9895 -210.6139 -146.9573)">
					<stop  offset="0" style="stop-color:#FFC444"/>
					<stop  offset="0.9964" style="stop-color:#F36F56"/>
				</linearGradient>
				
					<use xlink:href="#SVGID_00000170970047120359206030000001917843243154221969_"  style="overflow:visible;fill:url(#SVGID_00000036239407094354591660000009752150914733952642_);"/>
				<clipPath id="SVGID_00000031891829573432850120000008402907746124704407_">
					<use xlink:href="#SVGID_00000170970047120359206030000001917843243154221969_"  style="overflow:visible;"/>
				</clipPath>
				<g style="clip-path:url(#SVGID_00000031891829573432850120000008402907746124704407_);">
					<defs>
						<path id="SVGID_00000015354099691424038470000008733193202337458310_" d="M2531.268,2926.911
							c-26.181,0-52.944-1.4-80.169-4.23c-91.579-9.523-143.806-34.908-199.102-61.784c-43.747-21.263-88.982-43.25-155.87-56.895
							c-153.196-31.247-324.67,2.508-509.665,100.327l-1.642-3.103c185.734-98.208,357.996-132.08,512.008-100.66
							c67.322,13.732,112.76,35.818,156.703,57.176c55.008,26.736,106.967,51.991,197.932,61.449
							c163.666,17.024,310.587-17.877,413.659-98.263c159.628-124.491,225.806-362.804,168.596-607.129l3.416-0.801
							c57.522,245.656-9.15,485.367-169.853,610.695C2780.656,2891.25,2663.375,2926.911,2531.268,2926.911z"/>
					</defs>
					<defs>
						<path id="SVGID_00000150096653379625545970000009818964455177830284_" d="M2945.458,2738.905l0.591-2.633
							c30.729-137.134-37.33-254.516-99.836-328.839c-67.859-80.689-144.016-129.491-144.777-129.975l1.88-2.963
							c0.766,0.487,77.315,49.532,145.523,130.608c62.644,74.464,130.809,191.841,101.221,329.261
							c13.474-3.002,76.361-18.153,143.028-52.873c68.94-35.903,156.157-100.691,180.162-205.452l3.42,0.783
							c-24.31,106.095-112.411,171.574-182.039,207.821c-75.302,39.203-145.823,53.592-146.526,53.731L2945.458,2738.905z"/>
					</defs>
					<defs>
						<path id="SVGID_00000153676999044723567870000009887517077854147474_" d="M2937.815,3053.127
							c-79.44,0-144.632-14.475-194.021-31.653c-108.068-37.587-165.929-95.925-166.501-96.51l-1.197-1.224l1.196-1.226
							c97.565-100.049,102.043-224.663,88.621-311.584c-14.572-94.362-52.786-165.951-53.171-166.665l3.089-1.666
							c0.387,0.715,38.854,72.756,53.534,167.692c13.511,87.378,9.077,212.52-88.342,313.417c8.838,8.494,65.33,60.2,164.11,94.516
							c99.075,34.418,262.189,57.886,476.642-25.801l1.277,3.27C3114.319,3038.123,3018.684,3053.127,2937.815,3053.127z"/>
					</defs>
					<use xlink:href="#SVGID_00000015354099691424038470000008733193202337458310_"  style="overflow:visible;fill:#FFFFFF;"/>
					<use xlink:href="#SVGID_00000150096653379625545970000009818964455177830284_"  style="overflow:visible;fill:#FFFFFF;"/>
					<use xlink:href="#SVGID_00000153676999044723567870000009887517077854147474_"  style="overflow:visible;fill:#FFFFFF;"/>
					<clipPath id="SVGID_00000168824780400139651420000016897844543425893509_">
						<use xlink:href="#SVGID_00000015354099691424038470000008733193202337458310_"  style="overflow:visible;"/>
					</clipPath>
					
						<clipPath id="SVGID_00000142168840025904214010000012084677445201365161_" style="clip-path:url(#SVGID_00000168824780400139651420000016897844543425893509_);">
						<use xlink:href="#SVGID_00000150096653379625545970000009818964455177830284_"  style="overflow:visible;"/>
					</clipPath>
					
						<clipPath id="SVGID_00000147905900407919383470000013043464443894765723_" style="clip-path:url(#SVGID_00000142168840025904214010000012084677445201365161_);">
						<use xlink:href="#SVGID_00000153676999044723567870000009887517077854147474_"  style="overflow:visible;"/>
					</clipPath>
				</g>
			</g>
		</g>
		<g>
			<g>
				<g>
					
						<linearGradient id="SVGID_00000090259220567206583340000006800893616762048953_" gradientUnits="userSpaceOnUse" x1="2537.3018" y1="2700.5928" x2="1423.359" y2="1750.3484">
						<stop  offset="0" style="stop-color:#444B8C"/>
						<stop  offset="0.9964" style="stop-color:#26264F"/>
					</linearGradient>
					<path style="fill:url(#SVGID_00000090259220567206583340000006800893616762048953_);" d="M2285.496,716.038v2309.759
						c0,34.541-29.539,43.084-63.065,45.44l-1170.325,104.438l-18.052,1.274c-37.073,2.617-67.487-25.068-67.487-61.529V677.217
						c0-36.462,30.414-65.318,67.487-64.129l24.496,0.786l1174.308,89.586C2266.374,704.509,2285.496,681.497,2285.496,716.038z"/>
					
						<linearGradient id="SVGID_00000077316692944236705300000012782768663632176018_" gradientUnits="userSpaceOnUse" x1="-1319.7489" y1="3006.7617" x2="2830.5183" y2="3161.1482" gradientTransform="matrix(0 -1 1 0 -1389.0323 1734.3226)">
						<stop  offset="0" style="stop-color:#444B8C"/>
						<stop  offset="0.9964" style="stop-color:#26264F"/>
					</linearGradient>
					<path style="fill:url(#SVGID_00000077316692944236705300000012782768663632176018_);" d="M2321.225,715.982v2308.496
						c0,34.522-27.329,64.697-60.817,67.062l-1189.243,83.981c-37.032,2.615-67.412-25.055-67.412-61.497V677.182
						c0-36.441,30.38-65.282,67.412-64.093l1189.243,38.174C2293.896,652.337,2321.225,681.46,2321.225,715.982z"/>
					
						<linearGradient id="SVGID_00000173859694860739633650000010647177593920570800_" gradientUnits="userSpaceOnUse" x1="2008.4054" y1="1436.1804" x2="612.0335" y2="3313.6982">
						<stop  offset="0" style="stop-color:#FFC444"/>
						<stop  offset="0.9964" style="stop-color:#F36F56"/>
					</linearGradient>
					<path style="fill:url(#SVGID_00000173859694860739633650000010647177593920570800_);" d="M2283.472,843.023v2139.784
						c0,32.249-25.569,60.389-56.894,62.537l-1118.218,76.682c-34.432,2.361-62.675-23.464-62.675-57.395V813.253
						c0-33.931,28.243-60.944,62.675-60.031l1118.218,29.657C2257.903,783.709,2283.472,810.773,2283.472,843.023z"/>
				</g>
				<path style="fill:#DE8BDF;" d="M1702.375,704.868c0,12.279-9.876,21.955-22.069,21.61
					c-12.206-0.345-22.109-10.597-22.109-22.899s9.904-21.976,22.109-21.609C1692.499,682.338,1702.375,692.589,1702.375,704.868z"
					/>
			</g>
			<polygon style="opacity:0.64;fill:#FFFFFF;" points="2193.955,1449.974 1143.289,1455.661 1143.289,886.232 2193.955,901.832 			
				"/>
			<polygon style="opacity:0.64;fill:#FFFFFF;" points="1633.472,2425.798 1143.289,2445.718 1143.289,2006.635 1633.472,1994.372 
							"/>
			<polygon style="opacity:0.64;fill:#FFFFFF;" points="2193.955,2403.021 1723.636,2422.134 1723.636,1992.117 2193.955,1980.351 
							"/>
			<polygon style="opacity:0.64;fill:#FFFFFF;" points="1633.472,2956.077 1143.289,2985.41 1143.289,2546.326 1633.472,2524.652 
							"/>
			<polygon style="opacity:0.64;fill:#FFFFFF;" points="2193.955,2922.538 1723.636,2950.682 1723.636,2520.665 2193.955,2499.868 
							"/>
			<g style="opacity:0.64;">
				<path style="fill:#FFFFFF;" d="M1460.881,1726.316c0,84.083-70.47,153.704-157.894,155.513
					c-87.974,1.82-159.698-65.637-159.698-150.681s71.724-154.684,159.698-155.54
					C1390.411,1574.756,1460.881,1642.233,1460.881,1726.316z"/>
				<path style="fill:#FFFFFF;" d="M1832.317,1720.665c0,82.959-68.596,151.63-153.689,153.391
					c-85.621,1.772-155.422-64.794-155.422-148.688c0-83.894,69.801-152.583,155.422-153.417
					C1763.72,1571.122,1832.317,1637.706,1832.317,1720.665z"/>
				<path style="fill:#FFFFFF;" d="M2193.955,1715.163c0,81.865-66.797,149.611-149.65,151.326
					c-83.361,1.725-151.315-63.972-151.315-146.747s67.953-150.54,151.315-151.351
					C2127.158,1567.584,2193.955,1633.298,2193.955,1715.163z"/>
			</g>
		</g>
		<g>
			
				<linearGradient id="SVGID_00000005252714998543118970000012657649682104103865_" gradientUnits="userSpaceOnUse" x1="1091.464" y1="1731.3157" x2="1192.9125" y2="1621.8583">
				<stop  offset="0" style="stop-color:#AA80F9"/>
				<stop  offset="0.9964" style="stop-color:#6165D7"/>
			</linearGradient>
			<path style="fill:url(#SVGID_00000005252714998543118970000012657649682104103865_);" d="M1081.075,1445.304l37.86,7.572
				c0,0,198.763,253.66,170.368,350.202c-28.395,96.542-170.368,22.716-170.368,22.716L1081.075,1445.304z"/>
			
				<linearGradient id="SVGID_00000094618105276149700200000011095352229020081286_" gradientUnits="userSpaceOnUse" x1="1361.095" y1="3268.491" x2="1477.9102" y2="3268.491" gradientTransform="matrix(-0.9996 0.0289 0.0289 0.9996 2205.6753 -31.2392)">
				<stop  offset="0" style="stop-color:#444B8C"/>
				<stop  offset="0.9964" style="stop-color:#26264F"/>
			</linearGradient>
			<path style="fill:url(#SVGID_00000094618105276149700200000011095352229020081286_);" d="M831.618,3251.383
				c-6.388,5.192-7.563,18.159-8.329,26.635c-0.346,3.786-0.515,5.681-0.093,7.018c3.086,9.754,22.005,10.781,51.673,13.813
				c46.883,4.789,60.834,8.479,64.503,1.503c3.439-6.538-4.883-17.244-5.82-18.424c-5.038-6.346-11.22-8.654-23.174-12.588
				c-22.118-7.28-37.064-11.266-41.589-12.473C840.534,3249.322,835.814,3247.974,831.618,3251.383z"/>
			
				<linearGradient id="SVGID_00000159450015904636527900000000333622482879858361_" gradientUnits="userSpaceOnUse" x1="1811.053" y1="3242.0769" x2="1862.3016" y2="3136.0039" gradientTransform="matrix(-0.9925 0.1225 0.1225 0.9925 2272.9387 -162.6817)">
				<stop  offset="0" style="stop-color:#FFC444"/>
				<stop  offset="0.9964" style="stop-color:#F36F56"/>
			</linearGradient>
			<path style="fill:url(#SVGID_00000159450015904636527900000000333622482879858361_);" d="M859.5,3208.553l4.692,53.424
				c-1.332,2.58-17.212,10.318-29.825,3.682l-12.055-52.514L859.5,3208.553z"/>
			
				<linearGradient id="SVGID_00000052069669601840043440000010548834955216202144_" gradientUnits="userSpaceOnUse" x1="1763.933" y1="3161.9309" x2="1888.0414" y2="3161.9309" gradientTransform="matrix(-0.9642 0.2651 0.2651 0.9642 2192.8501 -308.9189)">
				<stop  offset="0" style="stop-color:#444B8C"/>
				<stop  offset="0.9964" style="stop-color:#26264F"/>
			</linearGradient>
			<path style="fill:url(#SVGID_00000052069669601840043440000010548834955216202144_);" d="M1214.964,3208.827
				c-7.656,8.455-9.4,24.024-2.743,31.694c6.544,7.542,16.384,1.885,44.292,2.718c29.894,0.894,37.7,7.954,58.014,2.349
				c8.207-2.269,22.701-7.771,22.426-13.632c-0.193-4.121-7.572-6.25-32.219-14.507c-34.985-11.719-34.831-12.359-42.26-13.59
				C1243.813,3200.768,1225.076,3197.664,1214.964,3208.827z"/>
			
				<linearGradient id="SVGID_00000176756139586519240910000010842303387325702038_" gradientUnits="userSpaceOnUse" x1="1612.6914" y1="3197.9026" x2="1665.0282" y2="3089.5774" gradientTransform="matrix(-0.9802 0.1979 0.1979 0.9802 2204.0603 -227.1835)">
				<stop  offset="0" style="stop-color:#FFC444"/>
				<stop  offset="0.9964" style="stop-color:#F36F56"/>
			</linearGradient>
			<path style="fill:url(#SVGID_00000176756139586519240910000010842303387325702038_);" d="M1234.117,3160.071l14.994,49.874
				c-1.134,2.676-16.376,11.6-29.457,5.947l-22.268-48.408L1234.117,3160.071z"/>
			
				<linearGradient id="SVGID_00000073710759068182579000000008533121290477749946_" gradientUnits="userSpaceOnUse" x1="1289.5291" y1="3005.4255" x2="958.5084" y2="2259.2263">
				<stop  offset="0" style="stop-color:#AB316D"/>
				<stop  offset="1" style="stop-color:#792D3D"/>
			</linearGradient>
			<path style="fill:url(#SVGID_00000073710759068182579000000008533121290477749946_);" d="M1100.898,2067.746
				c2.148,167.616,13.586,356.08,41.031,560.835c27.123,202.369,65.136,385.219,106.6,546.009
				c-19.13,5.147-38.259,10.293-57.388,15.441c-48.534-45.254-109.757-116.492-139.299-217.163
				c-18.335-62.482-12.225-94.59-23.855-171.442c-18.518-122.365-56.028-186.474-94.796-285.149
				c-34.839-88.669-76.018-218.8-98.098-392.744C923.695,2104.937,1012.297,2086.341,1100.898,2067.746z"/>
			
				<linearGradient id="SVGID_00000116220629379797468280000013193810270457205390_" gradientUnits="userSpaceOnUse" x1="1289.5289" y1="3005.4255" x2="958.5085" y2="2259.2268">
				<stop  offset="0" style="stop-color:#AB316D"/>
				<stop  offset="1" style="stop-color:#792D3D"/>
			</linearGradient>
			<path style="opacity:0.3;fill:url(#SVGID_00000116220629379797468280000013193810270457205390_);" d="M1115.149,2872.615
				c-19.199-53.035-42.571-69.369-53.004-124.937c-9.099-48.469,3.395-64.211,3.786-113.579
				c0.779-98.377-48.083-130.963-64.362-212.014c-8.824-43.938,48.885-154.881,101.825-250.73
				c-1.237-35.34-2.065-69.915-2.497-103.607c-88.6,18.595-177.203,37.19-265.805,55.786
				c22.08,173.944,63.26,304.076,98.098,392.745c38.768,98.674,76.278,162.784,94.796,285.148
				c11.631,76.853,5.52,108.961,23.855,171.443c29.542,100.67,90.766,171.908,139.299,217.163c1.807-0.486,3.615-0.972,5.422-1.459
				c-48.923-63.764-64.115-117.925-66.27-160.731C1128.066,2983.589,1139.135,2938.877,1115.149,2872.615z"/>
			
				<linearGradient id="SVGID_00000132079324885738040170000011210804530123450268_" gradientUnits="userSpaceOnUse" x1="661.014" y1="3072.3606" x2="329.9992" y2="2326.1746" gradientTransform="matrix(0.9925 -0.1225 0.1225 0.9925 83.0051 108.1241)">
				<stop  offset="0" style="stop-color:#AB316D"/>
				<stop  offset="1" style="stop-color:#792D3D"/>
			</linearGradient>
			<path style="fill:url(#SVGID_00000132079324885738040170000011210804530123450268_);" d="M916.683,2087.442
				c-11.708,213.179-21.338,430.326-28.635,651.318c-5.477,165.833-9.499,329.562-12.171,491.137
				c-19.54,2.412-39.081,4.826-58.623,7.237c-18.881-35.155-43.96-88.9-61.14-157.788c-20.866-83.665-16.034-133.35-25.185-220.062
				c-10.268-97.254-25.18-118.443-51.599-241.128c-53.62-248.986-80.431-373.48-20.617-450.921
				C678.128,2142.096,738.998,2079.031,916.683,2087.442z"/>
			
				<linearGradient id="SVGID_00000127043987304427210400000005896100388214273180_" gradientUnits="userSpaceOnUse" x1="651.246" y1="2167.2959" x2="1034.8914" y2="1753.3634">
				<stop  offset="0" style="stop-color:#AA80F9"/>
				<stop  offset="0.9964" style="stop-color:#6165D7"/>
			</linearGradient>
			<path style="fill:url(#SVGID_00000127043987304427210400000005896100388214273180_);" d="M646.068,1451.829
				c50.545-14.214,124.622-30.836,215.344-35.965c133.764-7.561,200.67-10.907,239.936,19.843
				c121.782,95.368,6.37,436.241,49.767,615.351c36.515,150.707,37.859,153.332,37.859,153.332
				c8.631,16.848,22.619,40.259,17.037,68.147c-4.39,21.934-20.986,47.138-43.538,54.896
				c-46.863,16.124-73.726-58.806-151.439-81.398c-81.232-23.616-172.117,23.3-287.04,82.624
				c-73.137,37.755-98.11,61.834-123.738,49.885c-49.348-23.01-35.796-149.152-30.288-200.656
				C591.854,1973.226,616.487,1733.603,646.068,1451.829z"/>
			
				<linearGradient id="SVGID_00000120555064636820334800000001478712285826115505_" gradientUnits="userSpaceOnUse" x1="977.3859" y1="1798.3071" x2="1126.1117" y2="1798.3071">
				<stop  offset="0" style="stop-color:#FFC444"/>
				<stop  offset="0.9964" style="stop-color:#F36F56"/>
			</linearGradient>
			<path style="fill:url(#SVGID_00000120555064636820334800000001478712285826115505_);" d="M981.693,1799.292
				c-3.537-0.79-9.838-24.315,5.679-31.234c70.04-31.234,124.243,30.606,131.491,49.635c7.249,19.028,7.249,19.028,7.249,19.028
				s-34.784,2.719-56.355-4.529C1048.185,1824.941,1010.455,1805.704,981.693,1799.292z"/>
			<g>
				<g>
					
						<linearGradient id="SVGID_00000075150731948455286880000010543792687374056117_" gradientUnits="userSpaceOnUse" x1="558.4771" y1="1065.4376" x2="517.5599" y2="1007.3353" gradientTransform="matrix(0.2291 -0.9734 -0.9734 -0.2291 2020.0098 2554.8499)">
						<stop  offset="0" style="stop-color:#444B8C"/>
						<stop  offset="0.9964" style="stop-color:#26264F"/>
					</linearGradient>
					<path style="fill:url(#SVGID_00000075150731948455286880000010543792687374056117_);" d="M1173.058,1887.86l-123.224,6.216
						c-4.721,0.238-10.359-5.605-9.198-9.584l57.562-186.271c0.906-3.097,4.059-5.164,7.567-4.97l118.176,2.59
						c3.85,0.226,5.961,7.81,4.914,11.558l-48.966,175.154C1179.082,1885.44,1176.173,1887.704,1173.058,1887.86z"/>
					
						<linearGradient id="SVGID_00000098928226606796279590000003974643958738701960_" gradientUnits="userSpaceOnUse" x1="479.3394" y1="1171.59" x2="576.7716" y2="973.6812" gradientTransform="matrix(0.2291 -0.9734 -0.9734 -0.2291 2020.0098 2554.8499)">
						<stop  offset="0" style="stop-color:#311944"/>
						<stop  offset="1" style="stop-color:#893976"/>
					</linearGradient>
					<path style="fill:url(#SVGID_00000098928226606796279590000003974643958738701960_);" d="M1170.83,1883.891l-123.904,5.814
						c-4.749,0.223-8.023-3.175-6.861-7.158l55.348-189.491c0.908-3.108,4.078-5.173,7.606-4.964l118.342,6.998
						c3.87,0.229,6.477,3.955,5.426,7.716l-49.096,175.777C1176.883,1881.479,1173.96,1883.745,1170.83,1883.891z"/>
				</g>
				
					<linearGradient id="SVGID_00000045598695619109306970000005809306070639688608_" gradientUnits="userSpaceOnUse" x1="424.1786" y1="1041.1147" x2="636.6732" y2="1041.1147" gradientTransform="matrix(0.2291 -0.9734 -0.9734 -0.2291 2020.0098 2554.8499)">
					<stop  offset="0" style="stop-color:#311944"/>
					<stop  offset="1" style="stop-color:#893976"/>
				</linearGradient>
				<path style="opacity:0.3;fill:url(#SVGID_00000045598695619109306970000005809306070639688608_);" d="M1108.277,1770.905
					c3.669,17.232,19.169,13.521,31.813,34.379c16.052,26.479,0.67,49.862,15.382,59.56c4.491,2.959,12.08,4.736,25.731,1.166
					l-3.512,12.574c-0.808,2.896-3.732,5.161-6.861,5.308l-123.904,5.814c-4.748,0.222-8.023-3.176-6.861-7.158l55.348-189.491
					c0.908-3.108,4.078-5.173,7.606-4.964l17.777,1.051c2.088,6.512,3.583,14.028,3.42,22.352
					C1123.656,1740.068,1103.979,1750.719,1108.277,1770.905z"/>
			</g>
			
				<linearGradient id="SVGID_00000162325902301512669800000017111519534636147635_" gradientUnits="userSpaceOnUse" x1="1147.2714" y1="1719.5656" x2="1258.8795" y2="1861.0408">
				<stop  offset="0" style="stop-color:#FFC444"/>
				<stop  offset="0.9964" style="stop-color:#F36F56"/>
			</linearGradient>
			<path style="fill:url(#SVGID_00000162325902301512669800000017111519534636147635_);" d="M1227.293,1756.994
				c0.694-2.98-0.777-6.049-2.993-6.209c-9.017-0.65-29.931-0.914-41.477,9.086c-14.998,12.994-34.391,36.706-18.059,48.669
				l15.249,11.175c0.7,0.513,1.464,0.673,2.232,0.434c5.419-1.685,28.226-8.841,30.72-10.619
				C1215.237,1807.914,1223.932,1771.414,1227.293,1756.994z"/>
			
				<linearGradient id="SVGID_00000173146535679193006810000009113709802995426711_" gradientUnits="userSpaceOnUse" x1="676.6785" y1="2190.8672" x2="1060.3242" y2="1776.9342">
				<stop  offset="0" style="stop-color:#AA80F9"/>
				<stop  offset="0.9964" style="stop-color:#6165D7"/>
			</linearGradient>
			<path style="opacity:0.3;fill:url(#SVGID_00000173146535679193006810000009113709802995426711_);" d="M1124.614,2255.501
				c-13.215-22.908-12.66-57.505-41.646-73.826c-16.899-9.517-30.074-5.067-53.004-5.679
				c-68.353-1.823-81.438-44.825-128.723-47.324c-73.23-3.871-108.406,95.751-149.546,81.398
				c-26.855-9.369-44.148-63.083-30.288-104.115c19.32-57.198,85.531-49.364,172.261-126.83
				c37.103-33.138,90.337-92.943,75.72-119.258c-15.354-27.64-88.203,12.918-141.974-28.395
				c-31.376-24.106-27.372-53.896-53.004-107.9c-13.889-29.264-64.753-105.349-140.399-156.644
				c-24.318,232.593-45.203,434.773-64.044,610.961c-5.508,51.504-19.06,177.647,30.288,200.656
				c25.628,11.949,50.601-12.13,123.738-49.885c114.923-59.324,205.808-106.24,287.04-82.624
				c77.713,22.592,104.576,97.522,151.439,81.398c14.639-5.036,26.695-17.449,34.605-31.522
				C1155.283,2288.396,1134.571,2272.76,1124.614,2255.501z"/>
			<g>
				
					<linearGradient id="SVGID_00000133509812604457832530000003890879630468343196_" gradientUnits="userSpaceOnUse" x1="1077.4497" y1="1444.9596" x2="1091.1418" y2="1080.2468" gradientTransform="matrix(0.917 0.3988 -0.3988 0.917 399.6047 -184.8945)">
					<stop  offset="0" style="stop-color:#FFC444"/>
					<stop  offset="0.9964" style="stop-color:#F36F56"/>
				</linearGradient>
				<path style="fill:url(#SVGID_00000133509812604457832530000003890879630468343196_);" d="M929.636,1314.057
					c0.085,10.171-25.205,61.117-59.314,85.815c-34.418,24.923-77.716,23.567-90.617,26.766
					c-29.913,7.416-33.761,7.214-34.422,10.182c-3.221,14.481,78.345,63.834,162.614,51.939
					c51.574-7.279,98.499-36.703,95.619-52.155c-2.899-15.55-54.416-7.206-69.77-35.338c-10.681-19.571,1.292-47.354,15.445-70.363
					C935.482,1305.219,943.343,1339.74,929.636,1314.057z"/>
				<g>
					
						<linearGradient id="SVGID_00000122711348974026394990000004921827248025338811_" gradientUnits="userSpaceOnUse" x1="1559.152" y1="949.079" x2="1461.5768" y2="701.2559" gradientTransform="matrix(-0.9052 -0.4249 -0.4249 0.9052 2628.1162 1242.0535)">
						<stop  offset="0" style="stop-color:#311944"/>
						<stop  offset="1" style="stop-color:#6B3976"/>
					</linearGradient>
					<path style="fill:url(#SVGID_00000122711348974026394990000004921827248025338811_);" d="M1020.153,1337.606
						c17.922-9.399,30.69-34.585,25.657-56.714c-4.331-19.043-20.557-29.154-30.268-35.212
						c-28.146-17.547-71.604-22.921-97.658-1.71c-15.439,12.571-14.68,54.251-14.932,61.561c-0.279,8.267,3.989,13.171,6.513,20.719
						c3.495,10.464,8.883,27.023,17.461,54.51c4.045-4.994,9.441-10.994,16.34-16.998c2.656-2.311,13.171-11.27,25.39-17.04
						C993.141,1335.15,1003.165,1346.511,1020.153,1337.606z"/>
					
						<linearGradient id="SVGID_00000173864608562276679180000000855127327098313128_" gradientUnits="userSpaceOnUse" x1="-10.4932" y1="719.1907" x2="-14.98" y2="1080.6831" gradientTransform="matrix(0.9296 0.3687 -0.3687 0.9296 1241.8521 648.5008)">
						<stop  offset="0" style="stop-color:#FFC444"/>
						<stop  offset="0.9964" style="stop-color:#F36F56"/>
					</linearGradient>
					<path style="fill:url(#SVGID_00000173864608562276679180000000855127327098313128_);" d="M909.383,1352.749
						c0,0,4.356,41.387,44.529,57.32c35.969,14.264,78.161-61.563,63.744-88.729c-4.811-9.062-18.612-18.42-32.327-20.765
						c-8.101-1.384-11.932,0.439-25.123-2.083c-12.172-2.323-14.661-4.974-19.237-3.774c-5.724,1.506-12.722,8.527-16.729,34.641
						c-3.464-9.895-10.228-16.268-17.158-16.279c-1.104,0.001-4.272,0.494-6.792,2.325
						C891.176,1322.031,893.93,1337.314,909.383,1352.749z"/>
					
						<linearGradient id="SVGID_00000082367076000801679710000015469479584653987250_" gradientUnits="userSpaceOnUse" x1="1529.3413" y1="960.9442" x2="1431.6688" y2="712.8739" gradientTransform="matrix(-0.9052 -0.4249 -0.4249 0.9052 2628.1162 1242.0535)">
						<stop  offset="0" style="stop-color:#311944"/>
						<stop  offset="1" style="stop-color:#6B3976"/>
					</linearGradient>
					<path style="fill:url(#SVGID_00000082367076000801679710000015469479584653987250_);" d="M941.608,1289.291
						c1.088,2.052-7.032,5.893-11.625,14.597c-8.92,16.893-1.273,45.871,15.705,56.067c10.038,6.027,15.939,1.052,34.218,7.462
						c11.316,3.969,19.638,9.591,24.697,13.499c-3.495,21.509-17.579,37.931-34.37,40.689c-18.077,2.97-32.758-10.986-38.895-16.821
						c-4.106-3.903-17.278-16.379-18.651-34.531c-1.429-18.915,11.154-23.945,6.191-38.632c-2.503-7.409-7.91-12.666-9.529-25.478
						c-0.438-3.481-0.456-6.384-0.399-8.304C922.475,1292.564,940.033,1286.319,941.608,1289.291z"/>
				</g>
			</g>
			
				<linearGradient id="SVGID_00000018944029139147854400000018243025178536505005_" gradientUnits="userSpaceOnUse" x1="710.1464" y1="1928.993" x2="765.6743" y2="1454.4845">
				<stop  offset="0" style="stop-color:#AA80F9"/>
				<stop  offset="0.9964" style="stop-color:#6165D7"/>
			</linearGradient>
			<path style="fill:url(#SVGID_00000018944029139147854400000018243025178536505005_);" d="M749.803,1509.665
				c-20.425-30.979-61.063-61.38-98.435-58.683c-109.145,7.877-243.687,301.896-151.439,418.35
				c70.419,88.896,287.956,93.211,486.497-60.576c0-17.037,0-34.074,0-51.11c-97.697,17.086-178.69,28.434-238.516,35.967
				c-37.312,4.699-74.481,8.935-81.398-5.679c-10.468-22.113,64.264-53.741,92.756-136.295
				C763.194,1640.26,788.178,1567.873,749.803,1509.665z"/>
		</g>
		<g>
			
				<linearGradient id="SVGID_00000086650361774449310690000014511049240552555153_" gradientUnits="userSpaceOnUse" x1="2175.7881" y1="1733.4797" x2="2441.3118" y2="1733.4797">
				<stop  offset="0" style="stop-color:#FF9085"/>
				<stop  offset="1" style="stop-color:#FB6FBB"/>
			</linearGradient>
			<path style="fill:url(#SVGID_00000086650361774449310690000014511049240552555153_);" d="M2387.977,1574.291
				c-21.703-1.636-20.756,56.589-82.002,106.121c-54.753,44.282-95.149,29.806-118.18,68.738
				c-22.697,38.366-11.97,100.658,21.706,127.825c49.257,39.737,158.5-0.014,205.006-72.355
				C2473.983,1712.105,2420.557,1576.748,2387.977,1574.291z"/>
			
				<linearGradient id="SVGID_00000083086356637664749820000005464440345352403076_" gradientUnits="userSpaceOnUse" x1="2175.7881" y1="1733.4797" x2="2441.3118" y2="1733.4797">
				<stop  offset="0" style="stop-color:#FF9085"/>
				<stop  offset="1" style="stop-color:#FB6FBB"/>
			</linearGradient>
			<path style="opacity:0.3;fill:url(#SVGID_00000083086356637664749820000005464440345352403076_);" d="M2387.977,1574.291
				c-21.703-1.636-20.756,56.589-82.002,106.121c-54.753,44.282-95.149,29.806-118.18,68.738
				c-22.697,38.366-11.97,100.658,21.706,127.825c49.257,39.737,158.5-0.014,205.006-72.355
				C2473.983,1712.105,2420.557,1576.748,2387.977,1574.291z"/>
			
				<linearGradient id="SVGID_00000050655711302847724990000010239704948094447753_" gradientUnits="userSpaceOnUse" x1="2513.4119" y1="3041.293" x2="2536.6548" y2="3459.6709">
				<stop  offset="0" style="stop-color:#444B8C"/>
				<stop  offset="0.9964" style="stop-color:#26264F"/>
			</linearGradient>
			<path style="fill:url(#SVGID_00000050655711302847724990000010239704948094447753_);" d="M2571.635,3190.062
				c0,0,2.906,23.128,0.956,30.876c-1.953,7.749-69.194,13.347-92.019,10.653c-22.823-2.692,13.596-26.007,28.138-30.382
				C2523.249,3196.833,2571.635,3190.062,2571.635,3190.062z"/>
			
				<linearGradient id="SVGID_00000102530853049757288200000007678773660711612091_" gradientUnits="userSpaceOnUse" x1="2557.3086" y1="3247.4758" x2="2544.9614" y2="2682.6052">
				<stop  offset="0" style="stop-color:#FFC444"/>
				<stop  offset="0.9964" style="stop-color:#F36F56"/>
			</linearGradient>
			<path style="fill:url(#SVGID_00000102530853049757288200000007678773660711612091_);" d="M2537.785,3151.481l7.087,46.401
				c0,0,18.073,8.122,26.762,0.095l0.956-48.569L2537.785,3151.481z"/>
			
				<linearGradient id="SVGID_00000014619778684450098980000011828176899982720955_" gradientUnits="userSpaceOnUse" x1="2934.0947" y1="3017.9304" x2="2957.3364" y2="3436.2874">
				<stop  offset="0" style="stop-color:#444B8C"/>
				<stop  offset="0.9964" style="stop-color:#26264F"/>
			</linearGradient>
			<path style="fill:url(#SVGID_00000014619778684450098980000011828176899982720955_);" d="M2916.85,3149.408
				c0,0-14.27,10.587-10.465,23.267c3.803,12.679,37.095,63.485,60.823,77.905c23.725,14.419,16.288-15.622,9.384-34.333
				c-6.904-18.712-24.548-59.929-31.434-66.839C2938.27,3142.502,2916.85,3149.408,2916.85,3149.408z"/>
			
				<linearGradient id="SVGID_00000127734842400609072080000006907377853627775157_" gradientUnits="userSpaceOnUse" x1="2927.6868" y1="3239.3792" x2="2915.3396" y2="2674.5181">
				<stop  offset="0" style="stop-color:#FFC444"/>
				<stop  offset="0.9964" style="stop-color:#F36F56"/>
			</linearGradient>
			<path style="fill:url(#SVGID_00000127734842400609072080000006907377853627775157_);" d="M2891.184,3098.434
				c6.896,19.224,13.531,35.029,18.72,46.687c11.48,25.792,17.754,35.47,24.859,43.86c6.198,7.307,20.867,22.902,24.81,20.305
				c4.006-2.631-6.728-21.591-27.413-77.117c-3.007-8.056-12.495-33.735-12.495-33.735l0,0H2891.184z"/>
			
				<linearGradient id="SVGID_00000063608701025693186110000015207231334731438510_" gradientUnits="userSpaceOnUse" x1="2377.968" y1="2880.3384" x2="2612.5593" y2="2565.4922">
				<stop  offset="0" style="stop-color:#AB316D"/>
				<stop  offset="1" style="stop-color:#792D3D"/>
			</linearGradient>
			<path style="fill:url(#SVGID_00000063608701025693186110000015207231334731438510_);" d="M2396.967,2295.126
				c-4.92,48.323-9.642,123.323-2.583,214.347c9.201,118.594,32.915,193.638,62.652,320.088
				c18.176,77.275,42.665,191.012,64.826,333.257c5.142,2.942,20.269,10.682,39.747,7.793c10.905-1.62,19.061-5.955,23.877-9.072
				c58.146-177.677,40.972-287.781,12.912-356.38c-11.959-29.241-26.462-52.309-34.214-97.258
				c-10.257-59.468,2.425-92.712,20.51-230.463c12.892-98.182,10.659-113.358,2.082-128.082
				C2552.495,2290.487,2447.628,2291.638,2396.967,2295.126z"/>
			
				<linearGradient id="SVGID_00000178892730348656663990000011064243242818020282_" gradientUnits="userSpaceOnUse" x1="2552.2341" y1="2919.4119" x2="3101.6709" y2="2407.0164">
				<stop  offset="0" style="stop-color:#AB316D"/>
				<stop  offset="1" style="stop-color:#792D3D"/>
			</linearGradient>
			<path style="fill:url(#SVGID_00000178892730348656663990000011064243242818020282_);" d="M2597.108,2315.79
				c35.62,183.953,70.581,280.569,97.038,335.216c6.524,13.475,28.293,56.957,48.871,119.291
				c18.219,55.176,25.81,95.765,29.699,113.631c12.281,56.386,42.632,138.718,124.299,246.704c1.018,0.6,14.944,8.475,28.256,1.455
				c6.737-3.557,10.095-9.223,11.431-11.864c-10.677-103.243-22.934-190.001-33.571-256.957
				c-2.234-14.043-12.063-75.486-27.479-156.66c-6.033-31.768-14.873-78.313-25.463-126.121
				c-13.183-59.536-33.401-140.529-64.562-237.582C2722.788,2333.863,2659.947,2324.83,2597.108,2315.79z"/>
			
				<linearGradient id="SVGID_00000127036552070412424370000017687292741623875257_" gradientUnits="userSpaceOnUse" x1="2890.6152" y1="1990.7329" x2="2727.9207" y2="1760.2487">
				<stop  offset="0" style="stop-color:#444B8C"/>
				<stop  offset="0.9964" style="stop-color:#26264F"/>
			</linearGradient>
			<path style="fill:url(#SVGID_00000127036552070412424370000017687292741623875257_);" d="M2521.288,1576.844
				c-20.2-18.672-58.848-40.199-78.232-90.24c-5.836-15.062-26.507-68.431,3.987-109.255c18.098-24.235,51.716-40.69,81.348-34.865
				c25.321,4.979,29.28,22.614,72.307,58.108c16.749,13.814,43.669,36.02,73.63,48.365c51.331,21.156,82.17,1.25,133.704,3.52
				c63.309,2.791,136.855,38.123,172.289,89.503c62.892,91.191-28.213,183.697,40.673,290.528
				c22.572,34.998,33.698,27.152,87.158,94.905c53.533,67.842,80.299,101.76,75.538,143.327
				c-6.611,57.689-68.748,112.796-127.262,116.542c-57.159,3.663-93.493-41.307-122.592-21.636
				c-20.713,13.995-8.87,41.224-30.867,73.946c-28.356,42.189-84.091,50.595-93.093,51.949
				c-83.548,12.603-196.197-85.365-244.042-201.433C2479.559,1880.808,2631.112,1678.361,2521.288,1576.844z"/>
			
				<linearGradient id="SVGID_00000036961111038038160500000000358886466550553778_" gradientUnits="userSpaceOnUse" x1="2407.8926" y1="2902.6353" x2="2642.4832" y2="2587.7896">
				<stop  offset="0" style="stop-color:#AB316D"/>
				<stop  offset="1" style="stop-color:#792D3D"/>
			</linearGradient>
			<path style="opacity:0.3;fill:url(#SVGID_00000036961111038038160500000000358886466550553778_);" d="M2598.399,2805.16
				c-11.959-29.243-26.462-52.311-34.214-97.258c-10.257-59.468,2.425-92.712,20.51-230.463
				c12.892-98.182,10.659-113.358,2.082-128.082c-18.631-31.99-58.115-46.186-98.409-51.985c0.538,2.066,1.081,4.136,1.519,6.135
				c21.142,96.552-59.545,155.464-23.149,261.598c17.942,52.328,46.573,64.313,53.244,125.013
				c6.249,56.859-16.415,68.705-11.574,120.383c7.236,77.252,62.115,95.948,76.396,155.107
				c9.279,38.442,1.464,94.651-66.307,176.013c1.127,7.01,2.25,14.042,3.365,21.196c5.144,2.942,20.269,10.682,39.747,7.793
				c10.905-1.62,19.061-5.955,23.877-9.072C2643.633,2983.863,2626.46,2873.759,2598.399,2805.16z"/>
			
				<linearGradient id="SVGID_00000013161294623524771320000002716293218082420670_" gradientUnits="userSpaceOnUse" x1="2344.1765" y1="2024.6091" x2="3192.4775" y2="2024.6091">
				<stop  offset="0" style="stop-color:#FF9085"/>
				<stop  offset="1" style="stop-color:#FB6FBB"/>
			</linearGradient>
			<path style="fill:url(#SVGID_00000013161294623524771320000002716293218082420670_);" d="M2367.476,1562.231
				c26.21-10.468,28.82-23.021,49.334-36.102c28.722-18.315,59.49-15.506,120.18-13.284c21.041,0.77,43.893,3.294,68.293,8.465
				c117.802,24.959,191.169,95.646,218.783,125.356c-22.613,14.723-85.012,59.65-115.915,144.879
				c-9.615,26.517-38.021,117.173,2.604,202.082c23.407,48.928,64.814,85.66,96.261,113.564
				c47.17,41.844,71.599,48.276,87.411,85.764c17.22,40.825-0.132,60.732,21.254,88.679c22.968,30.015,49.878,16.063,88.808,46.416
				c39.879,31.087,25.688,56.676,61.979,91.034c52.733,49.917,122.641,33.704,125.895,56.167
				c2.801,19.322-46.882,45.538-89.094,56.169c-83.594,21.055-156.507-14.284-178.19-25.179
				c-60.03-30.157-49.66-49.677-95.428-72.669c-76.636-38.497-129.011,4.342-303.561,8.753
				c-94.525,2.392-142.321,2.929-168.506-29.051c-23.915-29.213-11.343-61.255,3.007-199.346c0,0,0-0.006,0.001-0.016
				c4.612-46.117,14.268-142.677,14.326-197.701C2374.954,1983.692,2342.983,1572.014,2367.476,1562.231z"/>
			<g style="opacity:0.3;">
				
					<linearGradient id="SVGID_00000022556673282389388420000017922185528005563780_" gradientUnits="userSpaceOnUse" x1="2760.5142" y1="1513.8381" x2="2894.8018" y2="2335.0615">
					<stop  offset="0" style="stop-color:#FF9085"/>
					<stop  offset="1" style="stop-color:#FB6FBB"/>
				</linearGradient>
				<path style="fill:url(#SVGID_00000022556673282389388420000017922185528005563780_);" d="M3066.47,2419.085
					c-36.291-34.358-22.1-59.946-61.979-91.034c-38.93-30.354-65.84-16.402-88.808-46.415
					c-21.385-27.949-4.033-47.854-21.254-88.679c-15.813-37.49-40.241-43.92-87.411-85.767
					c-31.448-27.902-72.855-64.633-96.261-113.562c-40.625-84.909-12.219-175.564-2.604-202.081
					c30.902-85.229,93.302-130.155,115.915-144.879c-2.177-2.346-4.745-5.017-7.491-7.83
					c-148.978,20.473-235.841,106.557-246.583,132.048c-24.834,58.92,14.479,80.568,15.494,250.503
					c0.483,81.226-8.277,113.298,18.076,147.202c30.141,38.773,64.876,26.775,108.463,77.473
					c33.491,38.948,28.127,63.644,59.398,80.055c33.625,17.643,55.042-2.92,92.968,5.167
					c63.361,13.511,76.905,86.567,118.793,126.537c31.675,30.225,90.237,51.356,205.735,28.675c2.67-3.889,3.961-7.686,3.445-11.243
					C3189.108,2452.791,3119.203,2469.003,3066.47,2419.085z"/>
			</g>
			
				<linearGradient id="SVGID_00000124869832049365756990000004235204593190842241_" gradientUnits="userSpaceOnUse" x1="2612.9998" y1="1771.8925" x2="2964.2075" y2="1771.8925">
				<stop  offset="0" style="stop-color:#FF9085"/>
				<stop  offset="1" style="stop-color:#FB6FBB"/>
			</linearGradient>
			<path style="fill:url(#SVGID_00000124869832049365756990000004235204593190842241_);" d="M2615.184,1816.723
				c-15.836,33.631,56.936,111.96,137.821,149.153c16.479,7.581,134.826,61.996,187.571,9.671
				c43.583-43.24,15.455-132.646,5.413-164.564c-49.31-156.735-200.744-236.464-264.208-265.22
				c-47.364,118.427-19.469,171.199-8.49,187.676c11.47,17.212,43.479,53.369,77.473,85.223
				c23.914,22.403,38.805,33.305,36.802,36.799c-2.492,4.35-30.521-3.864-139.394-56.858
				C2635.551,1800.648,2620.596,1805.24,2615.184,1816.723z"/>
			
				<linearGradient id="SVGID_00000149365934639553033300000000994987406897675915_" gradientUnits="userSpaceOnUse" x1="2535.1292" y1="1575.8361" x2="2578.7551" y2="1326.5441">
				<stop  offset="0" style="stop-color:#FFC444"/>
				<stop  offset="0.9964" style="stop-color:#F36F56"/>
			</linearGradient>
			<path style="fill:url(#SVGID_00000149365934639553033300000000994987406897675915_);" d="M2570.933,1500.634
				c22.171,13.753,58.009,31.73,61.957,36.611c3.947,4.873-108.574,24.141-178.588-11.191c0,0-10.854-6.029,31.354-14.471
				c8.994-1.799,28.443-19.504,27.237-37.592l15.694-35.748C2528.587,1438.243,2548.765,1486.871,2570.933,1500.634z"/>
			
				<linearGradient id="SVGID_00000083789532607472899490000008940234014600370583_" gradientUnits="userSpaceOnUse" x1="2079.9404" y1="3477.5222" x2="2306.8074" y2="3340.939" gradientTransform="matrix(0.6516 -0.7586 0.7586 0.6516 -1494.6797 774.3549)">
				<stop  offset="0" style="stop-color:#FFC444"/>
				<stop  offset="0.9964" style="stop-color:#F36F56"/>
			</linearGradient>
			<path style="fill:url(#SVGID_00000083789532607472899490000008940234014600370583_);" d="M2531.922,1443.573
				c0,0,5.632,23.892-15.409,35.7c-18.839,10.574-50.713-32.771-44.76-48.88c1.986-5.373,9.08-12.279,16.495-14.6
				c5.215-1.634,24.947-1.003,33.397,15.609c2.215-4.858,6.177-7.403,8.841-6.605c3.379,1.009,3.875,7.162,3.99,8.555
				C2534.867,1438.183,2532.918,1441.929,2531.922,1443.573z"/>
			
				<linearGradient id="SVGID_00000003090426122400938330000006940691077327004349_" gradientUnits="userSpaceOnUse" x1="2586.0876" y1="1753.5134" x2="2687.1421" y2="2371.502">
				<stop  offset="0" style="stop-color:#FFC444"/>
				<stop  offset="0.9964" style="stop-color:#F36F56"/>
			</linearGradient>
			<path style="fill:url(#SVGID_00000003090426122400938330000006940691077327004349_);" d="M2642.681,1808.859
				c0,0-66.366-67.907-93.375-77.938c-27.008-10.033-10.803,4.63,0,13.118c10.804,8.487,18.003,11.278,12.475,24.159
				c-5.529,12.883-15.569,24.316,0.255,34.418c15.823,10.102,21.998,13.96,34.345,15.502c12.345,1.545,12.345,1.545,12.345,1.545
				l16.207,8.641C2624.933,1828.304,2645.768,1825.837,2642.681,1808.859z"/>
			<g>
				<g>
					
						<linearGradient id="SVGID_00000163785165698072925030000002337435065144055743_" gradientUnits="userSpaceOnUse" x1="-31.0836" y1="4391.1157" x2="-61.6801" y2="4347.6689" gradientTransform="matrix(-0.2291 -0.9734 0.9734 -0.2291 -1850.9048 2554.8499)">
						<stop  offset="0" style="stop-color:#444B8C"/>
						<stop  offset="0.9964" style="stop-color:#26264F"/>
					</linearGradient>
					<path style="fill:url(#SVGID_00000163785165698072925030000002337435065144055743_);" d="M2384.019,1669.375l92.143,4.648
						c3.53,0.179,7.747-4.191,6.878-7.166l-43.042-139.288c-0.678-2.315-3.035-3.861-5.658-3.716l-88.368,1.936
						c-2.879,0.169-4.457,5.84-3.675,8.643l36.615,130.974C2379.514,1667.565,2381.689,1669.259,2384.019,1669.375z"/>
					
						<linearGradient id="SVGID_00000149373669861227101740000014598615055782054279_" gradientUnits="userSpaceOnUse" x1="-90.2604" y1="4470.4932" x2="-17.4036" y2="4322.5029" gradientTransform="matrix(-0.2291 -0.9734 0.9734 -0.2291 -1850.9048 2554.8499)">
						<stop  offset="0" style="stop-color:#311944"/>
						<stop  offset="1" style="stop-color:#893976"/>
					</linearGradient>
					<path style="fill:url(#SVGID_00000149373669861227101740000014598615055782054279_);" d="M2385.684,1666.407l92.652,4.348
						c3.551,0.167,6-2.374,5.13-5.353l-41.387-141.695c-0.679-2.324-3.05-3.868-5.688-3.712l-88.492,5.233
						c-2.894,0.171-4.843,2.957-4.058,5.77l36.713,131.441C2381.158,1664.604,2383.344,1666.298,2385.684,1666.407z"/>
				</g>
				
					<linearGradient id="SVGID_00000111189766882859232070000016785793638469138566_" gradientUnits="userSpaceOnUse" x1="-131.5078" y1="4372.9277" x2="27.3888" y2="4372.9277" gradientTransform="matrix(-0.2291 -0.9734 0.9734 -0.2291 -1850.9048 2554.8499)">
					<stop  offset="0" style="stop-color:#311944"/>
					<stop  offset="1" style="stop-color:#893976"/>
				</linearGradient>
				<path style="opacity:0.3;fill:url(#SVGID_00000111189766882859232070000016785793638469138566_);" d="M2432.46,1581.92
					c-2.744,12.885-14.334,10.11-23.789,25.707c-12.003,19.801-0.501,37.285-11.503,44.537c-3.357,2.213-9.032,3.542-19.24,0.871
					l2.626,9.403c0.604,2.166,2.79,3.86,5.13,3.969l92.652,4.348c3.55,0.166,6-2.375,5.13-5.353l-41.387-141.695
					c-0.679-2.324-3.05-3.868-5.688-3.712l-13.293,0.786c-1.562,4.869-2.679,10.489-2.557,16.714
					C2420.96,1558.861,2435.674,1566.825,2432.46,1581.92z"/>
			</g>
			
				<linearGradient id="SVGID_00000007394293911067278330000004815344684690092954_" gradientUnits="userSpaceOnUse" x1="2334.8015" y1="1647.6094" x2="2226.269" y2="1836.9385">
				<stop  offset="0" style="stop-color:#FF9085"/>
				<stop  offset="1" style="stop-color:#FB6FBB"/>
			</linearGradient>
			<path style="fill:url(#SVGID_00000007394293911067278330000004815344684690092954_);" d="M2367.476,1605.644
				c24.624,13.393-7.991,158.2-54.266,230.331c-13.613,21.219-58.732,54.022-95.268,44.619c-28.1-7.232-43.306-68.19-37.383-107.326
				c5.383-35.57,45.467-61.581,96.473-107.326C2327.146,1620.997,2353.027,1597.785,2367.476,1605.644z"/>
			
				<linearGradient id="SVGID_00000064352881287869561720000014882177413560433837_" gradientUnits="userSpaceOnUse" x1="2374.0171" y1="1574.0687" x2="2278.75" y2="1767.0143">
				<stop  offset="0" style="stop-color:#FFC444"/>
				<stop  offset="0.7041" style="stop-color:#F78851"/>
				<stop  offset="0.9964" style="stop-color:#F36F56"/>
			</linearGradient>
			<path style="fill:url(#SVGID_00000064352881287869561720000014882177413560433837_);" d="M2354.21,1609.564l-5.637-17.538
				c-1.593-4.954,0.503-10.37,5.067-12.869c6.324-3.463,15.387-6.547,22.276-1.248c11.758,9.045-8.139,56.075-12.662,52.457
				C2358.733,1626.748,2354.21,1609.564,2354.21,1609.564z"/>
		</g>
	</g>
</g>
</svg>
